<svg width="171" height="171" viewBox="0 0 171 171" fill="none" xmlns="http://www.w3.org/2000/svg">
<path fill-rule="evenodd" clip-rule="evenodd" d="M53.5563 147.279C53.115 147.043 52.6765 146.803 52.241 146.558L44.8402 160.144L46.1575 160.862L53.5563 147.279ZM26.9634 122.334L13.5579 130.769L12.759 129.5L26.1866 121.051C26.4411 121.481 26.7001 121.909 26.9634 122.334ZM16.5158 87C16.5053 86.5013 16.5 86.0013 16.5 85.5H0.5V87H16.5158ZM25.6502 50.8735C25.8981 50.4388 26.1505 50.0071 26.4074 49.5783L12.8671 41.3475L12.088 42.6292L25.6502 50.8735ZM50.2191 25.624C50.6464 25.3646 51.0767 25.1095 51.5099 24.859L43.9397 11.3532L42.6312 12.0866L50.2191 25.624ZM85.5 15.507C85.8328 15.5023 86.1661 15.5 86.5 15.5C86.6668 15.5 86.8335 15.5006 87 15.5017V0.5H85.5V15.507ZM119.218 23.6008C119.66 23.835 120.099 24.0738 120.536 24.3171L127.477 11.5733L126.16 10.8558L119.218 23.6008ZM144.645 46.5109C144.924 46.9258 145.198 47.3439 145.469 47.7651L157.442 40.2306L156.643 38.9611L144.645 46.5109ZM156.5 85.5C156.5 86.0012 156.495 86.5013 156.484 87H170.5V85.5L156.5 85.5ZM146.052 122.309C145.789 122.734 145.521 123.156 145.249 123.575L157.354 130.934L158.133 129.652L146.052 122.309ZM119.969 146.995C119.531 147.235 119.089 147.469 118.644 147.699L125.752 160.38L127.061 159.647L119.969 146.995ZM87 155.498C86.8335 155.499 86.6668 155.5 86.5 155.5C86.1661 155.5 85.8328 155.498 85.5 155.493V170.5H87V155.498Z" fill="#0089ED"/>
</svg>
