<svg width="11" height="20" viewBox="0 0 11 20" fill="none" xmlns="http://www.w3.org/2000/svg">
<path d="M1.51254 17.235C1.51254 17.235 0.745043 17.0238 0.554217 16.7636C0.53389 16.9063 0.255224 18.1771 0.255224 18.1771L1.51254 17.235Z" fill="#4B4C4D"/>
<path d="M1.51254 17.235C1.51254 17.235 0.745043 17.0238 0.554217 16.7636C0.53389 16.9063 0.255224 18.1771 0.255224 18.1771L1.51254 17.235Z" fill="url(#paint0_linear_1215_19488)"/>
<path d="M0.554318 16.7641C0.714903 15.6367 1.00812 14.1495 1.00812 14.1495C1.00812 14.1495 1.71507 13.8716 1.67347 14.5064C2.76018 13.9623 2.91957 14.7858 2.88095 15.057C3.78576 14.6471 3.86571 15.3428 3.86571 15.3428C3.86571 15.3428 2.46011 16.5259 1.51263 17.2355C1.38511 17.331 0.519761 17.0067 0.554318 16.7641Z" fill="#F5E1C1"/>
<path d="M0.554318 16.7641C0.714903 15.6367 1.00812 14.1495 1.00812 14.1495C1.00812 14.1495 1.71507 13.8716 1.67347 14.5064C2.76018 13.9623 2.91957 14.7858 2.88095 15.057C3.78576 14.6471 3.86571 15.3428 3.86571 15.3428C3.86571 15.3428 2.46011 16.5259 1.51263 17.2355C1.38511 17.331 0.519761 17.0067 0.554318 16.7641Z" fill="url(#paint1_linear_1215_19488)" fill-opacity="0.3"/>
<path d="M0.554318 16.7641C0.714903 15.6367 1.00812 14.1495 1.00812 14.1495C1.00812 14.1495 1.71507 13.8716 1.67347 14.5064C2.76018 13.9623 2.91957 14.7858 2.88095 15.057C3.78576 14.6471 3.86571 15.3428 3.86571 15.3428C3.86571 15.3428 2.46011 16.5259 1.51263 17.2355C1.38511 17.331 0.519761 17.0067 0.554318 16.7641Z" fill="url(#paint2_linear_1215_19488)" fill-opacity="0.6"/>
<path d="M0.911207 14.6438L1.01223 14.1631C1.01223 14.1631 1.70525 13.8687 1.63552 14.5868C2.46492 14.0206 2.89037 14.5762 2.83111 15.1066C3.72229 14.5637 3.85589 15.3399 3.85589 15.3399C3.85589 15.3399 3.61394 15.553 3.45206 15.6609C3.40371 15.0862 2.52676 15.5292 2.52676 15.5292C2.2452 14.8775 1.87858 14.7088 1.31398 15.4729C1.52822 14.4259 0.911207 14.6438 0.911207 14.6438Z" fill="url(#paint3_linear_1215_19488)" fill-opacity="0.6"/>
<path d="M3.90045 15.3274C4.95319 13.3076 8.20195 7.64036 9.70865 5.17577C9.74161 5.12186 9.05279 4.87026 8.35384 4.51684C7.60365 4.13752 6.90169 3.68373 6.86761 3.75198C5.45572 6.57938 1.58055 12.9875 0.992925 14.1417C1.75964 13.9013 1.67221 14.5151 1.67221 14.5151C1.67221 14.5151 2.75113 13.9114 2.88172 15.0514C3.55475 14.7832 3.77141 15.0906 3.90045 15.3274Z" fill="#FF7F34"/>
<path d="M3.90045 15.3274C4.95319 13.3076 8.20195 7.64036 9.70865 5.17577C9.74161 5.12186 9.05279 4.87026 8.35384 4.51684C7.60365 4.13752 6.90169 3.68373 6.86761 3.75198C5.45572 6.57938 1.58055 12.9875 0.992925 14.1417C1.75964 13.9013 1.67221 14.5151 1.67221 14.5151C1.67221 14.5151 2.75113 13.9114 2.88172 15.0514C3.55475 14.7832 3.77141 15.0906 3.90045 15.3274Z" fill="url(#paint4_linear_1215_19488)"/>
<path d="M3.90045 15.3274C4.95319 13.3076 8.20195 7.64036 9.70865 5.17577C9.74161 5.12186 9.05279 4.87026 8.35384 4.51684C7.60365 4.13752 6.90169 3.68373 6.86761 3.75198C5.45572 6.57938 1.58055 12.9875 0.992925 14.1417C1.75964 13.9013 1.67221 14.5151 1.67221 14.5151C1.67221 14.5151 2.75113 13.9114 2.88172 15.0514C3.55475 14.7832 3.77141 15.0906 3.90045 15.3274Z" fill="url(#paint5_linear_1215_19488)"/>
<path d="M6.84878 3.65841C6.90765 3.24454 7.41128 2.4519 7.52049 2.3708C7.86602 2.11422 10.6877 3.71814 10.6776 3.7895C10.6532 3.96075 9.96491 5.13588 9.87515 5.15243C9.74143 5.17708 6.8366 3.74405 6.84878 3.65841Z" fill="#D3D4D4"/>
<path d="M6.84878 3.65841C6.90765 3.24454 7.41128 2.4519 7.52049 2.3708C7.86602 2.11422 10.6877 3.71814 10.6776 3.7895C10.6532 3.96075 9.96491 5.13588 9.87515 5.15243C9.74143 5.17708 6.8366 3.74405 6.84878 3.65841Z" fill="url(#paint6_radial_1215_19488)"/>
<path d="M10.6329 2.34439C10.7877 2.62855 10.7266 3.2137 10.6178 3.63503C10.6128 3.6543 9.89024 3.21596 9.14754 2.87234C8.44749 2.54845 7.72446 2.31905 7.73065 2.30646C7.93523 1.89037 8.1404 1.55805 8.64449 1.4902C9.37468 1.39192 10.4824 2.06825 10.6329 2.34439Z" fill="#FA896A"/>
<path d="M10.6329 2.34439C10.7877 2.62855 10.7266 3.2137 10.6178 3.63503C10.6128 3.6543 9.89024 3.21596 9.14754 2.87234C8.44749 2.54845 7.72446 2.31905 7.73065 2.30646C7.93523 1.89037 8.1404 1.55805 8.64449 1.4902C9.37468 1.39192 10.4824 2.06825 10.6329 2.34439Z" fill="url(#paint7_radial_1215_19488)" fill-opacity="0.2"/>
<path d="M7.68457 3.04297C8.72155 3.19067 9.39474 3.60689 10.1155 4.14638" stroke="#4B4C4D" stroke-width="0.3" stroke-linecap="round"/>
<path d="M7.71729 3.5C8.51059 3.7586 9.07037 4.05675 9.60577 4.52615" stroke="#4B4C4D" stroke-width="0.3" stroke-linecap="round"/>
<path d="M7.6007 4.66275C5.66859 8.0569 4.19002 10.4381 2.06616 13.9215" stroke="#4B4C4D" stroke-width="0.3" stroke-linecap="round"/>
<path d="M8.77599 5.3239C6.68668 8.56461 5.39204 10.7973 3.31776 14.3896" stroke="#4B4C4D" stroke-width="0.3" stroke-linecap="round"/>
<path d="M1.61722 14.6718C1.49273 14.9744 1.40453 15.1366 1.30382 15.5008" stroke="#878888" stroke-width="0.3" stroke-linecap="round"/>
<path d="M2.80119 15.1613C2.61492 15.4405 2.46697 15.5651 2.25489 15.797" stroke="#878888" stroke-width="0.3" stroke-linecap="round"/>
<path fill-rule="evenodd" clip-rule="evenodd" d="M6.89609 3.95661C5.8078 6.11386 4.44292 8.41711 3.06314 10.7455L3.06313 10.7455L3.06313 10.7455L3.06313 10.7455C2.43188 11.8107 1.79752 12.8812 1.1851 13.9454C1.28715 13.9349 1.39066 13.9439 1.48662 13.9842C1.62177 14.0409 1.71911 14.1491 1.77441 14.3008C2.01461 14.2069 2.27369 14.2015 2.49599 14.2891C2.72955 14.3813 2.91163 14.5723 2.98333 14.8451C3.12909 14.798 3.2947 14.7701 3.45523 14.7929C3.57458 14.8099 3.69322 14.8555 3.79538 14.9437C3.82975 14.9733 3.86129 15.007 3.88985 15.0447C4.94514 13.0971 7.34008 8.72723 9.56766 5.23441C9.03429 5.01363 8.63061 4.79201 8.25905 4.58801L8.19795 4.55448C7.7793 4.32488 7.397 4.12043 6.89609 3.95661ZM9.84337 5.02216C9.2442 4.78659 8.81061 4.54856 8.40143 4.32394L8.40143 4.32394L8.3422 4.29144C7.91447 4.05686 7.50431 3.83684 6.96038 3.66208C6.91154 3.64639 6.86055 3.65706 6.82279 3.68618C6.75736 3.67174 6.68801 3.70273 6.65654 3.76532C5.56827 5.92962 4.20082 8.23712 2.81211 10.5805L2.8121 10.5805C2.14619 11.7042 1.47538 12.8362 0.828126 13.9645C0.802126 14.0098 0.802407 14.0631 0.824192 14.1065C0.788198 14.1292 0.762026 14.1669 0.755559 14.2123C0.637166 15.0435 0.457609 16.0195 0.312358 16.7964L0.271756 17.0132C0.21612 17.3102 0.167524 17.5696 0.132536 17.7674C0.110939 17.8895 0.0941688 17.9901 0.0840976 18.0624C0.0791228 18.0982 0.0753627 18.1299 0.0736992 18.155C0.072899 18.1671 0.0722826 18.1817 0.0730484 18.1962C0.0734217 18.2033 0.0743122 18.2145 0.077087 18.2272C0.0788785 18.2355 0.0856534 18.2664 0.110468 18.2959C0.139691 18.3306 0.176003 18.3435 0.199318 18.348C0.221922 18.3525 0.240912 18.3511 0.251731 18.3497C0.273337 18.347 0.291757 18.3407 0.302519 18.3366C0.326041 18.3277 0.35218 18.3144 0.377906 18.3002C0.431053 18.2708 0.503429 18.2256 0.592305 18.1664C0.77099 18.0474 1.02609 17.8653 1.34666 17.6231C1.97956 17.1449 2.8717 16.4291 3.94235 15.4941C3.95285 15.4893 3.96258 15.4833 3.97143 15.4764C3.99509 15.463 4.01538 15.443 4.02927 15.4173C5.02354 13.5789 7.57627 8.89637 9.91626 5.24611C9.91882 5.24226 9.92121 5.23828 9.92343 5.23415C9.93348 5.21558 9.93922 5.19567 9.94091 5.17568C9.94248 5.15735 9.94062 5.13913 9.93569 5.12187C9.92473 5.08344 9.89859 5.04976 9.86134 5.03019C9.85547 5.02709 9.84946 5.02442 9.84337 5.02216ZM0.640218 16.6748C0.777159 15.9395 0.937783 15.0541 1.04823 14.2849C1.18521 14.2342 1.29723 14.2301 1.37056 14.2608C1.43116 14.2863 1.50099 14.351 1.52214 14.5363L1.5489 14.7706L1.74979 14.647C1.96394 14.5152 2.20346 14.4963 2.38593 14.5682C2.56144 14.6374 2.69925 14.7959 2.71499 15.0621L2.72809 15.2837L2.92879 15.1889C3.08221 15.1164 3.26291 15.0686 3.41293 15.0899C3.48502 15.1002 3.54749 15.126 3.59933 15.1708C3.63527 15.2018 3.67021 15.2455 3.69985 15.3076C2.83539 16.061 2.09069 16.6685 1.50946 17.1202L1.49592 17.1172C1.26657 17.0655 1.12382 17.0333 1.00075 16.9762C0.882571 16.9213 0.77773 16.8403 0.640218 16.6748ZM0.571752 17.0411L0.566476 17.0693C0.510867 17.3661 0.462647 17.6235 0.427951 17.8196C0.4211 17.8584 0.414813 17.8945 0.409126 17.9279L0.426014 17.9167C0.597998 17.8022 0.847951 17.6239 1.1658 17.3838C1.17756 17.3749 1.18941 17.3659 1.20136 17.3568C1.08002 17.3265 0.972726 17.2939 0.874405 17.2483C0.764787 17.1974 0.668348 17.1317 0.571752 17.0411Z" fill="#282829"/>
<defs>
<linearGradient id="paint0_linear_1215_19488" x1="0.474941" y1="17.3202" x2="1.26142" y2="17.3959" gradientUnits="userSpaceOnUse">
<stop stop-color="#444444"/>
<stop offset="1" stop-opacity="0"/>
</linearGradient>
<linearGradient id="paint1_linear_1215_19488" x1="0.815016" y1="15.5053" x2="2.89785" y2="16.128" gradientUnits="userSpaceOnUse">
<stop stop-color="#F49600"/>
<stop offset="1" stop-color="#F5E1C1"/>
</linearGradient>
<linearGradient id="paint2_linear_1215_19488" x1="2.75033" y1="16.2451" x2="1.14902" y2="14.5119" gradientUnits="userSpaceOnUse">
<stop stop-color="#D59B3F"/>
<stop offset="1" stop-color="white" stop-opacity="0"/>
</linearGradient>
<linearGradient id="paint3_linear_1215_19488" x1="2.42192" y1="14.4367" x2="1.86807" y2="15.7205" gradientUnits="userSpaceOnUse">
<stop stop-color="#E8AC4C"/>
<stop offset="0.945924" stop-color="#E5BA76" stop-opacity="0"/>
</linearGradient>
<linearGradient id="paint4_linear_1215_19488" x1="4.4376" y1="8.35642" x2="6.96011" y2="9.96358" gradientUnits="userSpaceOnUse">
<stop stop-color="#E45C18"/>
<stop offset="1" stop-color="#FF7F34" stop-opacity="0"/>
</linearGradient>
<linearGradient id="paint5_linear_1215_19488" x1="7.11083" y1="9.58668" x2="4.51092" y2="8.13508" gradientUnits="userSpaceOnUse">
<stop stop-color="#E45C18"/>
<stop offset="1" stop-color="#FF7F34" stop-opacity="0"/>
</linearGradient>
<radialGradient id="paint6_radial_1215_19488" cx="0" cy="0" r="1" gradientUnits="userSpaceOnUse" gradientTransform="translate(8.77289 3.74875) rotate(26.5958) scale(1.24038 1.2523)">
<stop stop-color="#D2D3D3"/>
<stop offset="1" stop-color="#B7B7B8"/>
</radialGradient>
<radialGradient id="paint7_radial_1215_19488" cx="0" cy="0" r="1" gradientUnits="userSpaceOnUse" gradientTransform="translate(9.44166 2.4792) rotate(28.8364) scale(1.34394 1.84825)">
<stop stop-color="#FA896A"/>
<stop offset="1" stop-color="#D33003"/>
</radialGradient>
</defs>
</svg>
