<svg width="228" height="250" viewBox="0 0 228 250" fill="none" xmlns="http://www.w3.org/2000/svg">
<mask id="mask0" style="mask-type:alpha" maskUnits="userSpaceOnUse" x="0" y="0" width="228" height="250">
<rect width="228" height="250" rx="16" fill="#0053A1"/>
</mask>
<g mask="url(#mask0)">
<g opacity="0.2">
<path d="M161.312 0.000393242C166.484 0.000393242 170.677 7.10505 170.677 15.8693C170.677 24.6336 166.484 31.7383 161.312 31.7383" stroke="#28A9FA" stroke-width="4" stroke-linecap="round" stroke-linejoin="round"/>
<path d="M25.0283 0.00043869C25.0283 10.9757 19.787 19.8711 13.3215 19.8711C6.85606 19.8711 1.61475 10.9757 1.61475 0.00043869" stroke="#28A9FA" stroke-width="4" stroke-linecap="round" stroke-linejoin="round"/>
<path d="M0.484474 133.023L0.484375 63.5474C0.484375 49.9425 6.91854 38.9136 14.8555 38.9136" stroke="#28A9FA" stroke-width="4" stroke-linecap="round" stroke-linejoin="round"/>
<path d="M74.6007 0.000378609H47.4217C42.0993 0.000378609 37.7848 7.41545 37.7848 16.5593C37.7848 25.7031 42.0993 33.1182 47.4217 33.1182H51.6285" stroke="#28A9FA" stroke-width="4" stroke-linecap="round" stroke-linejoin="round"/>
<path d="M202.326 248.936C202.326 240.095 198.169 232.929 193.041 232.929C187.913 232.929 183.756 240.095 183.756 248.936" stroke="#28A9FA" stroke-width="4" stroke-linecap="round" stroke-linejoin="round"/>
<path d="M197.717 79.7007C210.605 85.5918 223.804 72.8477 227.199 51.237C230.592 29.6264 222.896 7.32914 210.008 1.43804C197.12 -4.45305 183.921 8.29108 180.527 29.9017" stroke="#28A9FA" stroke-width="4" stroke-linecap="round" stroke-linejoin="round"/>
<path d="M140.482 38.0889C145.921 38.0889 150.331 30.6729 150.331 21.5268C150.331 12.3807 145.921 4.96796 140.482 4.96796C135.042 4.96796 130.632 12.3807 130.632 21.5268V76.999" stroke="#28A9FA" stroke-width="4" stroke-linecap="round" stroke-linejoin="round"/>
<path d="M22.5724 174.972C22.5724 184.727 27.1345 192.635 32.7621 192.635C38.3898 192.635 42.9518 184.727 42.9518 174.972C42.9518 165.218 38.3898 157.31 32.7621 157.31H0" stroke="#28A9FA" stroke-width="4" stroke-linecap="round" stroke-linejoin="round"/>
<path d="M218.634 189.07C213.462 189.07 209.269 181.96 209.269 173.19C209.269 164.42 213.462 157.31 218.634 157.31C223.807 157.31 228 164.42 228 173.19V198.431" stroke="#28A9FA" stroke-width="4" stroke-linecap="round" stroke-linejoin="round"/>
<path d="M90.8413 140.889C90.8413 132.125 94.9772 125.02 100.079 125.02C105.181 125.02 109.317 132.125 109.317 140.889C109.317 149.653 105.181 156.758 100.079 156.758H65.5582" stroke="#28A9FA" stroke-width="4" stroke-linecap="round" stroke-linejoin="round"/>
<path d="M80.2522 206.158V247" stroke="#28A9FA" stroke-width="4" stroke-linecap="round" stroke-linejoin="round"/>
<path d="M117.391 27.973C117.391 12.5221 109.945 0.000428289 100.759 0.000428289C91.5739 0.000428289 84.1276 12.5221 84.1276 27.973V101.286" stroke="#28A9FA" stroke-width="4" stroke-linecap="round" stroke-linejoin="round"/>
<path fill-rule="evenodd" clip-rule="evenodd" d="M28.3386 136.059C19.7327 136.059 12.7564 124.264 12.7564 109.713L12.7564 82.646C12.7564 68.0946 19.7327 56.3004 28.3386 56.3004V56.3004C36.9444 56.3004 43.9207 68.0946 43.9207 82.646V109.713C43.9207 124.264 36.9444 136.059 28.3386 136.059V136.059Z" stroke="#28A9FA" stroke-width="4" stroke-linecap="round" stroke-linejoin="round"/>
<path d="M128.452 213.058H114.027C109.91 213.058 106.572 207.313 106.572 200.225V200.225C106.572 193.137 109.91 187.392 114.027 187.392H142.877C146.994 187.392 150.331 193.137 150.331 200.225V200.225V200.225C150.331 207.313 146.994 213.058 142.877 213.058H139.392" stroke="#28A9FA" stroke-width="4" stroke-linecap="round" stroke-linejoin="round"/>
<path d="M51.3372 189.324H52.5948C59.7542 189.324 65.558 199.271 65.558 211.54V211.54C65.558 223.81 59.7542 233.757 52.5948 233.757H13.1247C5.96527 233.757 0.161438 223.81 0.161438 211.54V211.54C0.161438 199.271 5.96527 189.324 13.1247 189.324H13.5116" stroke="#28A9FA" stroke-width="4" stroke-linecap="round" stroke-linejoin="round"/>
<path d="M106.572 234.309H143.975C155.155 234.309 164.218 218.678 164.218 199.397C164.218 180.116 155.155 164.485 143.975 164.485H135.138" stroke="#28A9FA" stroke-width="4" stroke-linecap="round" stroke-linejoin="round"/>
<path d="M169.87 247.059C169.87 225.232 180.28 207.538 193.122 207.538C205.963 207.538 216.374 225.232 216.374 247.059" stroke="#28A9FA" stroke-width="4" stroke-linecap="round" stroke-linejoin="round"/>
<path d="M76.2153 140.889V125.384C76.2153 114.971 71.5522 106.529 65.8003 106.529C60.0483 106.529 55.3853 114.971 55.3853 125.384V156.394C55.3853 166.807 60.0483 175.249 65.8003 175.249" stroke="#28A9FA" stroke-width="4" stroke-linecap="round" stroke-linejoin="round"/>
<path d="M194.872 41.5354C194.872 32.7711 199 25.6665 204.089 25.6665C209.179 25.6665 213.306 32.7711 213.306 41.5354C213.306 50.2997 209.179 57.4043 204.089 57.4043L144.034 57.4043" stroke="#28A9FA" stroke-width="4" stroke-linecap="round" stroke-linejoin="round"/>
<path d="M200.872 160.346C191.42 160.346 183.756 147.417 183.756 131.468V80.5871" stroke="#28A9FA" stroke-width="4" stroke-linecap="round" stroke-linejoin="round"/>
<path d="M93.8157 235.413V208.263C93.8157 190.03 85.1404 175.249 74.439 175.249" stroke="#28A9FA" stroke-width="4" stroke-linecap="round" stroke-linejoin="round"/>
<path d="M144.357 76.9991H153.037C161.798 76.9991 168.901 89.1428 168.901 104.125V125.296" stroke="#28A9FA" stroke-width="4" stroke-linecap="round" stroke-linejoin="round"/>
<path d="M101.082 25.6666V48.8509C101.082 65.617 109.107 79.207 119.005 79.207" stroke="#28A9FA" stroke-width="4" stroke-linecap="round" stroke-linejoin="round"/>
<path d="M120.943 141.165C122.186 141.165 137.824 141.165 145.487 141.165" stroke="#28A9FA" stroke-width="4" stroke-linecap="round" stroke-linejoin="round"/>
<path d="M187.632 183.666C188.138 183.666 194.516 183.666 197.643 183.666" stroke="#28A9FA" stroke-width="4" stroke-linecap="round" stroke-linejoin="round"/>
<path d="M94.785 99.2853C93.6804 99.2853 92.785 100.181 92.785 101.285C92.785 102.39 93.6804 103.285 94.785 103.285V99.2853ZM152.87 132.864C152.87 133.968 153.765 134.864 154.87 134.864C155.975 134.864 156.87 133.968 156.87 132.864H152.87ZM174.329 178.284C174.329 179.389 175.224 180.284 176.329 180.284C177.433 180.284 178.329 179.389 178.329 178.284H174.329ZM160.171 141.245C159.067 141.245 158.171 142.141 158.171 143.245C158.171 144.35 159.067 145.245 160.171 145.245V141.245ZM94.785 103.285H117.768V99.2853H94.785V103.285ZM117.768 103.285C118.564 103.285 119.659 103.857 120.666 105.592C121.644 107.277 122.313 109.737 122.313 112.563H126.313C126.313 109.16 125.517 105.981 124.126 103.585C122.765 101.239 120.587 99.2853 117.768 99.2853V103.285ZM122.313 112.563C122.313 115.967 123.11 119.145 124.501 121.542C125.863 123.888 128.041 125.841 130.861 125.841V121.841C130.064 121.841 128.968 121.27 127.96 119.534C126.982 117.849 126.313 115.389 126.313 112.563H122.313ZM130.861 125.841H132.219V121.841H130.861V125.841ZM132.219 125.841C135.038 125.841 137.216 123.888 138.579 121.542C139.97 119.145 140.767 115.967 140.767 112.563H136.767C136.767 115.389 136.098 117.849 135.119 119.534C134.112 121.27 133.016 121.841 132.219 121.841V125.841ZM140.767 112.563C140.767 109.738 141.436 107.278 142.414 105.593C143.422 103.857 144.518 103.285 145.315 103.285V99.2853C142.495 99.2853 140.317 101.238 138.955 103.584C137.564 105.981 136.767 109.16 136.767 112.563H140.767ZM145.315 103.285H146.818V99.2853H145.315V103.285ZM146.818 103.285C148.03 103.285 149.502 104.147 150.782 106.351C152.033 108.505 152.87 111.612 152.87 115.153H156.87C156.87 111.035 155.905 107.208 154.241 104.343C152.607 101.528 150.053 99.2853 146.818 99.2853V103.285ZM152.87 115.153V122.337H156.87V115.153H152.87ZM152.87 122.337V132.864H156.87V122.337H152.87ZM178.329 178.284V170.894H174.329V178.284H178.329ZM178.329 170.894C178.329 162.968 176.455 155.695 173.323 150.335C170.219 145.023 165.638 141.245 160.171 141.245V145.245C163.628 145.245 167.126 147.657 169.87 152.353C172.585 156.999 174.329 163.55 174.329 170.894H178.329Z" fill="#28A9FA"/>
<path d="M62.9617 32.8421H66.2367C70.856 32.8421 74.6005 39.2624 74.6005 47.1773V47.1773C74.6005 55.0955 70.856 61.5158 66.2367 61.5158H63.524C58.9398 61.5158 55.2238 67.8862 55.2238 75.7413V75.7413C55.2238 83.5998 58.9398 89.9702 63.524 89.9702H66.8626" stroke="#28A9FA" stroke-width="4" stroke-linecap="round" stroke-linejoin="round"/>
<path fill-rule="evenodd" clip-rule="evenodd" d="M207.649 141.027C201.142 141.027 195.867 132.007 195.867 120.88V120.88C195.867 109.755 201.142 100.734 207.649 100.734H216.218C222.724 100.734 228 109.755 228 120.88V120.88C228 132.007 222.724 141.027 216.218 141.027H207.649Z" stroke="#28A9FA" stroke-width="4" stroke-linecap="round" stroke-linejoin="round"/>
</g>
</g>
</svg>
