<svg width="831" height="1049" viewBox="0 0 831 1049" fill="none" xmlns="http://www.w3.org/2000/svg">
<g style="mix-blend-mode:screen" opacity="0.08">
<mask id="mask0" style="mask-type:alpha" maskUnits="userSpaceOnUse" x="0" y="0" width="831" height="1049">
<rect y="1049" width="1049" height="831" transform="rotate(-90 0 1049)" fill="#F4F4F4"/>
</mask>
<g mask="url(#mask0)">
<path d="M587.036 -77.297C605.924 -77.297 621.234 -51.3512 621.234 -19.3445C621.234 12.6621 605.924 38.6079 587.036 38.6079" stroke="#28A9FA" stroke-width="13" stroke-linecap="round" stroke-linejoin="round"/>
<path d="M89.3917 -77.2966C89.3917 -37.2156 70.2527 -4.72998 46.6438 -4.72998C23.0348 -4.72998 3.896 -37.2156 3.896 -77.2966" stroke="#F4F4F4" stroke-width="13" stroke-linecap="round" stroke-linejoin="round"/>
<path d="M38.6295 968.871C58.1984 968.871 74.0624 941.796 74.0624 908.399C74.0624 875.001 58.1984 847.926 38.6295 847.926H-1.40967" stroke="#28A9FA" stroke-width="13" stroke-linecap="round" stroke-linejoin="round"/>
<path d="M-0.230595 408.497L-0.230957 154.775C-0.230957 105.09 23.2637 64.8135 52.2457 64.8135" stroke="#F4F4F4" stroke-width="13" stroke-linecap="round" stroke-linejoin="round"/>
<path d="M270.406 -77.2968L171.161 -77.2968C151.726 -77.2968 135.972 -50.2174 135.972 -16.8247C135.972 16.568 151.726 43.6475 171.161 43.6475H186.523" stroke="#F4F4F4" stroke-width="13" stroke-linecap="round" stroke-linejoin="round"/>
<path d="M573.803 856.997C573.803 853.407 570.893 850.497 567.303 850.497C563.713 850.497 560.803 853.407 560.803 856.997H573.803ZM669.865 960.629C669.865 957.04 666.954 954.129 663.365 954.129C659.775 954.129 656.865 957.04 656.865 960.629H669.865ZM756.586 1043.14C756.586 1046.73 759.497 1049.64 763.086 1049.64C766.676 1049.64 769.586 1046.73 769.586 1043.14H756.586ZM713.245 953.606C709.655 953.606 706.745 956.516 706.745 960.106C706.745 963.696 709.655 966.606 713.245 966.606V953.606ZM516.502 863.497C520.092 863.497 523.002 860.587 523.002 856.997C523.002 853.407 520.092 850.497 516.502 850.497V863.497ZM445.336 1073.07C443.956 1076.39 445.524 1080.19 448.837 1081.57C452.151 1082.95 455.957 1081.38 457.337 1078.07L445.336 1073.07ZM560.803 856.997V1033.46H573.803V856.997H560.803ZM560.803 1033.46C560.803 1056.67 566.4 1078 575.788 1093.74C585.096 1109.35 598.871 1120.5 615.334 1120.5V1107.5C605.27 1107.5 595.029 1100.62 586.953 1087.08C578.958 1073.68 573.803 1054.73 573.803 1033.46H560.803ZM615.334 1120.5C631.797 1120.5 645.571 1109.35 654.879 1093.74C664.268 1078 669.865 1056.67 669.865 1033.46H656.865C656.865 1054.73 651.709 1073.68 643.714 1087.08C635.638 1100.62 625.397 1107.5 615.334 1107.5V1120.5ZM669.865 1033.46V960.629H656.865V1033.46H669.865ZM769.586 1043.14C769.586 1019.23 763.784 997.278 754.062 981.081C744.417 965.013 730.188 953.606 713.245 953.606V966.606C723.83 966.606 734.522 973.787 742.916 987.771C751.232 1001.63 756.586 1021.19 756.586 1043.14H769.586ZM472.701 996.272V940.799H459.701V996.272H472.701ZM472.701 940.799C472.701 918.634 478.107 898.882 486.507 884.887C494.984 870.764 505.791 863.497 516.502 863.497V850.497C499.433 850.497 485.089 861.99 475.361 878.197C465.555 894.533 459.701 916.682 459.701 940.799H472.701ZM457.337 1078.07C467.068 1054.7 472.701 1026.52 472.701 996.272H459.701C459.701 1024.96 454.35 1051.43 445.336 1073.07L457.337 1078.07Z" fill="#28A9FA"/>
<path fill-rule="evenodd" clip-rule="evenodd" d="M253.307 942.666C253.307 920.401 242.748 902.351 229.722 902.351C216.697 902.351 206.137 920.401 206.137 942.666C206.137 964.931 216.697 982.981 229.722 982.981C242.748 982.981 253.307 964.931 253.307 942.666Z" stroke="#28A9FA" stroke-width="13" stroke-linecap="round" stroke-linejoin="round"/>
<path fill-rule="evenodd" clip-rule="evenodd" d="M736.799 831.8C736.799 799.516 721.62 773.344 702.896 773.344C684.171 773.344 668.992 799.516 668.992 831.8C668.992 864.085 684.171 890.257 702.896 890.257C721.62 890.257 736.799 864.085 736.799 831.8Z" stroke="#28A9FA" stroke-width="13" stroke-linecap="round" stroke-linejoin="round"/>
<path d="M719.97 213.765C767.03 235.279 815.227 188.738 827.624 109.817C840.014 30.8963 811.911 -50.532 764.85 -72.0459C717.79 -93.5599 669.595 -47.019 657.2 31.9018" stroke="#28A9FA" stroke-width="13" stroke-linecap="round" stroke-linejoin="round"/>
<path d="M88.803 1109.97C88.803 1067.67 68.6081 1033.37 43.6967 1033.37C18.7851 1033.37 -1.40967 1067.67 -1.40967 1109.97" stroke="#28A9FA" stroke-width="13" stroke-linecap="round" stroke-linejoin="round"/>
<path d="M510.974 61.8011C530.838 61.8011 546.941 34.7181 546.941 1.31704C546.941 -32.084 530.838 -59.1548 510.974 -59.1548C491.11 -59.1548 475.007 -32.084 475.007 1.31704V203.898" stroke="#28A9FA" stroke-width="13" stroke-linecap="round" stroke-linejoin="round"/>
<path d="M80.4242 561.692C80.4242 597.316 97.0826 626.195 117.632 626.195C138.182 626.195 154.84 597.316 154.84 561.692C154.84 526.067 138.182 497.188 117.632 497.188H-2" stroke="#F4F4F4" stroke-width="13" stroke-linecap="round" stroke-linejoin="round"/>
<path d="M796.353 613.175C777.465 613.175 762.154 587.21 762.154 555.181C762.154 523.152 777.465 497.188 796.353 497.188C815.24 497.188 830.551 523.152 830.551 555.181V647.36" stroke="#28A9FA" stroke-width="13" stroke-linecap="round" stroke-linejoin="round"/>
<path d="M329.71 437.22C329.71 405.213 344.813 379.268 363.443 379.268C382.074 379.268 397.177 405.213 397.177 437.22C397.177 469.227 382.074 495.172 363.443 495.172H237.388" stroke="#F4F4F4" stroke-width="13" stroke-linecap="round" stroke-linejoin="round"/>
<path d="M230.313 841.17C196.772 841.17 169.582 886.904 169.582 943.319C169.582 999.734 196.772 1045.47 230.313 1045.47C263.854 1045.47 291.044 999.734 291.044 943.319V675.581" stroke="#28A9FA" stroke-width="13" stroke-linecap="round" stroke-linejoin="round"/>
<path d="M426.658 24.8577C426.658 -31.5683 399.467 -77.2966 365.926 -77.2966C332.385 -77.2966 305.195 -31.5683 305.195 24.8577V292.591" stroke="#28A9FA" stroke-width="13" stroke-linecap="round" stroke-linejoin="round"/>
<path fill-rule="evenodd" clip-rule="evenodd" d="M101.479 419.583C70.0544 419.583 44.5801 376.507 44.5801 323.37L44.5801 224.521C44.5801 171.38 70.0544 128.309 101.479 128.309V128.309C132.903 128.309 158.378 171.38 158.378 224.521V323.37C158.378 376.507 132.903 419.583 101.479 419.583V419.583Z" stroke="#F4F4F4" stroke-width="13" stroke-linecap="round" stroke-linejoin="round"/>
<path d="M467.047 700.778H414.373C399.339 700.778 387.152 679.795 387.152 653.912V653.912C387.152 628.029 399.339 607.046 414.373 607.046H519.72C534.754 607.046 546.941 628.029 546.941 653.912V653.912V653.912C546.941 679.795 534.754 700.778 519.72 700.778H506.994" stroke="#28A9FA" stroke-width="13" stroke-linecap="round" stroke-linejoin="round"/>
<path d="M185.461 614.101H190.053C216.196 614.101 237.389 650.426 237.389 695.234V695.234C237.389 740.043 216.196 776.368 190.053 776.368H45.9261C19.7833 776.368 -1.40967 740.043 -1.40967 695.234V695.234C-1.40967 650.426 19.7833 614.101 45.9261 614.101H47.3391" stroke="#28A9FA" stroke-width="13" stroke-linecap="round" stroke-linejoin="round"/>
<path d="M387.152 778.384H523.731C564.555 778.384 597.649 721.302 597.649 650.889C597.649 580.475 564.555 523.393 523.731 523.393H491.462" stroke="#28A9FA" stroke-width="13" stroke-linecap="round" stroke-linejoin="round"/>
<path d="M618.286 1034.38V824.946C618.286 745.237 656.3 680.62 703.192 680.62C750.082 680.62 788.098 745.237 788.098 824.946V887.951" stroke="#28A9FA" stroke-width="13" stroke-linecap="round" stroke-linejoin="round"/>
<path d="M411.327 944.682V994.255C411.327 1027.55 395.488 1054.54 375.949 1054.54C356.411 1054.54 340.572 1027.55 340.572 994.255V895.108C340.572 861.814 356.411 834.824 375.949 834.824H379.092C396.895 834.824 411.327 859.417 411.327 889.753" stroke="#28A9FA" stroke-width="13" stroke-linecap="round" stroke-linejoin="round"/>
<path d="M276.303 437.22V380.597C276.303 342.571 259.276 311.741 238.273 311.741C217.269 311.741 200.242 342.571 200.242 380.597V493.844C200.242 531.872 217.269 562.7 238.273 562.7" stroke="#28A9FA" stroke-width="13" stroke-linecap="round" stroke-linejoin="round"/>
<path d="M117.694 854.982L117.694 990.723C117.694 1017.62 121.707 1042.93 128.77 1065" stroke="#28A9FA" stroke-width="13" stroke-linecap="round" stroke-linejoin="round"/>
<path d="M709.583 74.3875C709.583 42.3809 724.654 16.4351 743.239 16.4351C761.824 16.4351 776.895 42.3809 776.895 74.3875C776.895 106.394 761.824 132.34 743.239 132.34H523.945" stroke="#28A9FA" stroke-width="13" stroke-linecap="round" stroke-linejoin="round"/>
<path d="M731.492 508.275C696.975 508.275 668.992 461.06 668.992 402.817V217.002" stroke="#28A9FA" stroke-width="13" stroke-linecap="round" stroke-linejoin="round"/>
<path d="M340.572 782.415V683.268C340.572 616.68 308.894 562.7 269.817 562.7" stroke="#28A9FA" stroke-width="13" stroke-linecap="round" stroke-linejoin="round"/>
<path d="M525.125 203.898H556.82C588.813 203.898 614.748 248.246 614.748 302.959V380.275" stroke="#F4F4F4" stroke-width="13" stroke-linecap="round" stroke-linejoin="round"/>
<path d="M367.106 16.4348V101.103C367.106 162.331 396.408 211.961 432.554 211.961" stroke="#F4F4F4" stroke-width="13" stroke-linecap="round" stroke-linejoin="round"/>
<path d="M830.256 1095.86C830.256 1074.69 830.256 844.51 830.256 713.88" stroke="#28A9FA" stroke-width="13" stroke-linecap="round" stroke-linejoin="round"/>
<path d="M439.629 438.228C444.165 438.228 501.268 438.228 529.252 438.228" stroke="#28A9FA" stroke-width="13" stroke-linecap="round" stroke-linejoin="round"/>
<path d="M683.146 593.44C684.996 593.44 708.285 593.44 719.702 593.44" stroke="#28A9FA" stroke-width="13" stroke-linecap="round" stroke-linejoin="round"/>
<path d="M344.109 286.09C340.52 286.09 337.609 289.001 337.609 292.59C337.609 296.18 340.52 299.09 344.109 299.09V286.09ZM557.012 407.912C557.012 411.502 559.922 414.412 563.512 414.412C567.102 414.412 570.012 411.502 570.012 407.912H557.012ZM635.369 573.786C635.369 577.376 638.279 580.286 641.869 580.286C645.459 580.286 648.369 577.376 648.369 573.786H635.369ZM582.87 439.327C579.28 439.327 576.37 442.237 576.37 445.827C576.37 449.416 579.28 452.327 582.87 452.327V439.327ZM344.109 299.09H428.031V286.09H344.109V299.09ZM428.031 299.09C431.345 299.09 435.562 301.454 439.311 307.916C442.965 314.212 445.432 323.341 445.432 333.777H458.432C458.432 321.465 455.551 310.001 450.555 301.391C445.655 292.946 437.922 286.09 428.031 286.09V299.09ZM445.432 333.777C445.432 346.089 448.315 357.554 453.313 366.163C458.216 374.608 465.952 381.463 475.842 381.463V368.463C472.526 368.463 468.307 366.098 464.556 359.637C460.901 353.34 458.432 344.212 458.432 333.777H445.432ZM475.842 381.463H480.801V368.463H475.842V381.463ZM480.801 381.463C490.691 381.463 498.427 374.608 503.329 366.164C508.328 357.554 511.211 346.089 511.211 333.777H498.211C498.211 344.212 495.742 353.34 492.086 359.637C488.335 366.098 484.116 368.463 480.801 368.463V381.463ZM511.211 333.777C511.211 323.342 513.68 314.213 517.335 307.917C521.087 301.455 525.306 299.09 528.621 299.09V286.09C518.731 286.09 510.995 292.945 506.093 301.39C501.094 310 498.211 321.465 498.211 333.777H511.211ZM528.621 299.09H534.112V286.09H528.621V299.09ZM534.112 299.09C538.943 299.09 544.535 302.514 549.279 310.687C553.928 318.695 557.012 330.188 557.012 343.234H570.012C570.012 328.311 566.514 314.482 560.522 304.16C554.626 294.004 545.518 286.09 534.112 286.09V299.09ZM557.012 343.234V369.472H570.012V343.234H557.012ZM557.012 369.472V407.912H570.012V369.472H557.012ZM648.369 573.786V546.799H635.369V573.786H648.369ZM648.369 546.799C648.369 517.971 641.555 491.553 630.201 472.121C618.939 452.847 602.429 439.327 582.87 439.327V452.327C595.896 452.327 608.885 461.409 618.977 478.68C628.976 495.793 635.369 519.862 635.369 546.799H648.369Z" fill="#F4F4F4"/>
<path d="M227.907 42.6396H239.866C256.733 42.6396 270.407 66.0861 270.407 94.9908V94.9908C270.407 123.908 256.733 147.354 239.866 147.354H229.96C213.221 147.354 199.652 170.619 199.652 199.305V199.305C199.652 228.004 213.221 251.268 229.96 251.268H242.152" stroke="#F4F4F4" stroke-width="13" stroke-linecap="round" stroke-linejoin="round"/>
<path fill-rule="evenodd" clip-rule="evenodd" d="M756.239 437.724C732.48 437.724 713.216 404.783 713.216 364.15V364.15C713.216 323.52 732.48 290.575 756.239 290.575H787.528C811.287 290.575 830.551 323.52 830.551 364.15V364.15C830.551 404.783 811.287 437.724 787.528 437.724H756.239Z" stroke="#28A9FA" stroke-width="13" stroke-linecap="round" stroke-linejoin="round"/>
</g>
</g>
</svg>
