<svg width="65" height="64" viewBox="0 0 65 64" fill="none" xmlns="http://www.w3.org/2000/svg">
<circle cx="32.5" cy="32" r="31.25" fill="#F4F4F4" stroke="#CB450C" stroke-width="1.5" stroke-linecap="round"/>
<path d="M48.8457 19.4433L49.18 19.1234L48.8869 18.7654L48.0012 17.6833L47.7321 17.3546L47.3642 17.567C42.4352 20.4137 36.8618 25.4286 33.9661 28.4765C31.3953 31.1824 28.0242 35.7871 25.8401 38.8021C25.822 38.751 25.8037 38.6989 25.785 38.646C25.7423 38.5247 25.698 38.399 25.6521 38.2694C25.4577 37.7213 25.2373 37.115 24.9921 36.5246C24.7476 35.9356 24.4736 35.3506 24.1694 34.8474C23.8695 34.3517 23.517 33.8957 23.1005 33.6049C22.2561 33.0154 21.4308 32.7525 20.635 32.7849C19.8413 32.8173 19.1346 33.141 18.5206 33.621C18.3365 33.765 18.0925 34.0052 17.8592 34.2406C17.7759 34.3247 17.6927 34.4095 17.6105 34.4932C17.4505 34.6562 17.2946 34.8151 17.1505 34.9559L16.8231 35.2759L17.1131 35.6301C17.198 35.7339 17.2868 35.8413 17.3794 35.9535C18.2532 37.0112 19.4722 38.4871 21.0541 41.1927C21.8648 42.5794 22.5093 44.448 23.091 46.1346C23.2131 46.4888 23.3325 46.8349 23.4501 47.1669L23.6622 47.7657L24.1944 47.4189L28.1801 44.8219L28.2763 44.7592L28.3355 44.6608C30.5502 40.9812 34.1381 35.2626 36.7164 31.9409C40.4442 27.1382 43.5042 24.3492 46.3458 21.7593C47.1946 20.9857 48.0239 20.2298 48.8457 19.4433Z" fill="#E45C18" stroke="#E45C18"/>
</svg>
