<svg width="65" height="64" viewBox="0 0 65 64" fill="none" xmlns="http://www.w3.org/2000/svg">
<circle cx="32.5" cy="32" r="31.25" fill="#E45C18" stroke="#CB450C" stroke-width="1.5" stroke-linecap="round"/>
<path d="M22.6641 19.4688C22.6641 19.875 22.6276 20.2448 22.5547 20.5781C22.487 20.9062 22.3776 21.2083 22.2266 21.4844C22.0755 21.7604 21.8802 22.0156 21.6406 22.25C21.401 22.4844 21.112 22.7083 20.7734 22.9219L22.6328 26.2344L19.1172 26.9219L17.9141 23.5938L16.9453 23.625L16.8047 26.875H13.4453C13.4714 25.6875 13.4948 24.5052 13.5156 23.3281C13.5417 22.151 13.5703 20.9688 13.6016 19.7812C13.612 19.1823 13.6224 18.5885 13.6328 18C13.6432 17.4115 13.6641 16.8177 13.6953 16.2188C14.0599 16.0833 14.4193 15.9714 14.7734 15.8828C15.1276 15.7943 15.4818 15.7266 15.8359 15.6797C16.1953 15.6276 16.5573 15.5938 16.9219 15.5781C17.2917 15.5573 17.6693 15.5469 18.0547 15.5469C18.6484 15.5469 19.2214 15.6302 19.7734 15.7969C20.3307 15.9583 20.8229 16.2031 21.25 16.5312C21.6771 16.8594 22.0182 17.2682 22.2734 17.7578C22.5339 18.2474 22.6641 18.8177 22.6641 19.4688ZM19.1641 19.7188C19.1641 19.5 19.1328 19.2995 19.0703 19.1172C19.013 18.9349 18.9245 18.7786 18.8047 18.6484C18.6901 18.513 18.5443 18.4089 18.3672 18.3359C18.1953 18.2578 17.9922 18.2188 17.7578 18.2188C17.6536 18.2188 17.5521 18.2266 17.4531 18.2422C17.3542 18.2526 17.2578 18.2708 17.1641 18.2969L17.0391 21.2031H17.2266C17.4505 21.2031 17.6771 21.1745 17.9062 21.1172C18.1406 21.0599 18.349 20.9714 18.5312 20.8516C18.7188 20.7318 18.8698 20.5781 18.9844 20.3906C19.1042 20.2031 19.1641 19.9792 19.1641 19.7188ZM31.8516 20.6875C31.8516 21.1406 31.8203 21.5938 31.7578 22.0469C30.8672 22.1042 29.9818 22.1979 29.1016 22.3281C28.2214 22.4531 27.3411 22.5781 26.4609 22.7031C26.5964 23.0781 26.8073 23.3776 27.0938 23.6016C27.3854 23.8255 27.7318 23.9375 28.1328 23.9375C28.3411 23.9375 28.5677 23.8984 28.8125 23.8203C29.0625 23.7422 29.3099 23.6458 29.5547 23.5312C29.7995 23.4115 30.0339 23.2839 30.2578 23.1484C30.4818 23.013 30.6745 22.8906 30.8359 22.7812L30.4609 26.3281C30.2578 26.4844 30.0365 26.6172 29.7969 26.7266C29.5625 26.8359 29.3177 26.9245 29.0625 26.9922C28.8073 27.0599 28.5495 27.1094 28.2891 27.1406C28.0286 27.1719 27.7734 27.1875 27.5234 27.1875C27.0078 27.1875 26.5365 27.1172 26.1094 26.9766C25.6823 26.8359 25.2943 26.6406 24.9453 26.3906C24.6016 26.1354 24.2995 25.8359 24.0391 25.4922C23.7786 25.1484 23.5625 24.7734 23.3906 24.3672C23.2188 23.9609 23.0885 23.5312 23 23.0781C22.9115 22.625 22.8672 22.1667 22.8672 21.7031C22.8672 21.2188 22.9115 20.7344 23 20.25C23.0885 19.7656 23.2214 19.2995 23.3984 18.8516C23.5807 18.4036 23.8073 17.9896 24.0781 17.6094C24.3542 17.224 24.6745 16.888 25.0391 16.6016C25.4036 16.3151 25.8151 16.0911 26.2734 15.9297C26.737 15.7682 27.2474 15.6875 27.8047 15.6875C28.2682 15.6875 28.6901 15.7526 29.0703 15.8828C29.4557 16.0078 29.7969 16.1849 30.0938 16.4141C30.3958 16.638 30.6562 16.9062 30.875 17.2188C31.099 17.5312 31.2812 17.875 31.4219 18.25C31.5677 18.6198 31.6745 19.013 31.7422 19.4297C31.8151 19.8411 31.8516 20.2604 31.8516 20.6875ZM28.7266 20.2812C28.7266 20.1354 28.7109 19.987 28.6797 19.8359C28.6484 19.6797 28.5964 19.5391 28.5234 19.4141C28.4557 19.2891 28.3646 19.1875 28.25 19.1094C28.1354 19.026 27.9922 18.9844 27.8203 18.9844C27.612 18.9844 27.4271 19.0417 27.2656 19.1562C27.1094 19.2656 26.974 19.4062 26.8594 19.5781C26.7448 19.7448 26.651 19.9271 26.5781 20.125C26.5052 20.3229 26.4505 20.5052 26.4141 20.6719L28.7266 20.4531V20.2812ZM41.7812 26.3281L37.9062 26.8281L37.4375 25.0625H35.6562L35.2656 26.8281L31.2812 26.4375L34.3906 16.0312L38.7344 15.8125L41.7812 26.3281ZM37.1562 22.6719L36.5625 19.9531L35.9844 22.6719H37.1562ZM50.7969 20.7969C50.7969 21.526 50.7031 22.1797 50.5156 22.7578C50.3281 23.3359 50.0651 23.849 49.7266 24.2969C49.3932 24.7396 48.9948 25.1172 48.5312 25.4297C48.0677 25.7422 47.5599 26 47.0078 26.2031C46.4557 26.401 45.8672 26.5469 45.2422 26.6406C44.6224 26.7344 43.9844 26.7812 43.3281 26.7812C43.0833 26.7812 42.8438 26.776 42.6094 26.7656C42.375 26.75 42.1354 26.7292 41.8906 26.7031L42.1094 16.5312C42.6823 16.349 43.2708 16.2214 43.875 16.1484C44.4844 16.0703 45.0885 16.0312 45.6875 16.0312C46.4323 16.0312 47.1172 16.1354 47.7422 16.3438C48.3672 16.5521 48.9062 16.8594 49.3594 17.2656C49.8125 17.6667 50.1641 18.1641 50.4141 18.7578C50.6693 19.3464 50.7969 20.026 50.7969 20.7969ZM45.4844 23.7969C45.7969 23.75 46.0807 23.6562 46.3359 23.5156C46.5964 23.3698 46.8203 23.1927 47.0078 22.9844C47.1953 22.7708 47.3385 22.5312 47.4375 22.2656C47.5417 21.9948 47.5938 21.7083 47.5938 21.4062C47.5938 21.1094 47.5625 20.8333 47.5 20.5781C47.4375 20.3177 47.3359 20.0938 47.1953 19.9062C47.0547 19.7135 46.8698 19.5625 46.6406 19.4531C46.4115 19.3385 46.1302 19.276 45.7969 19.2656L45.4844 23.7969ZM32.0156 41.7031C32.0156 42.4479 31.9922 43.1901 31.9453 43.9297C31.8984 44.6693 31.8438 45.4115 31.7812 46.1562L27.7656 46.3438C27.8854 45.4375 27.9922 44.5312 28.0859 43.625C28.1849 42.7135 28.2344 41.8021 28.2344 40.8906C28.2344 40.8333 28.2318 40.7344 28.2266 40.5938C28.2214 40.4479 28.2109 40.2839 28.1953 40.1016C28.1849 39.9193 28.1667 39.7318 28.1406 39.5391C28.1198 39.3411 28.0885 39.1615 28.0469 39C28.0104 38.8333 27.9635 38.6979 27.9062 38.5938C27.849 38.4896 27.7812 38.4375 27.7031 38.4375C27.5208 38.4375 27.3776 38.5078 27.2734 38.6484C27.1693 38.7839 27.0911 38.9479 27.0391 39.1406C26.9922 39.3333 26.9635 39.5312 26.9531 39.7344C26.9427 39.9323 26.9375 40.0938 26.9375 40.2188C26.9375 40.4375 26.9427 40.6562 26.9531 40.875C26.9635 41.0938 26.9688 41.3177 26.9688 41.5469C26.9688 42.3542 26.9479 43.1589 26.9062 43.9609C26.8698 44.763 26.8229 45.5677 26.7656 46.375L23.0625 46.5156C23.1823 45.6094 23.2865 44.7057 23.375 43.8047C23.4688 42.8984 23.5156 41.9896 23.5156 41.0781C23.5156 41.0208 23.513 40.9167 23.5078 40.7656C23.5026 40.6146 23.4922 40.4453 23.4766 40.2578C23.4661 40.0703 23.4479 39.875 23.4219 39.6719C23.3958 39.4688 23.362 39.2839 23.3203 39.1172C23.2839 38.9453 23.237 38.8047 23.1797 38.6953C23.1224 38.5859 23.0521 38.5312 22.9688 38.5312C22.8385 38.5312 22.7292 38.5833 22.6406 38.6875C22.5521 38.7865 22.4792 38.9167 22.4219 39.0781C22.3698 39.2396 22.3281 39.4193 22.2969 39.6172C22.2708 39.8099 22.25 40 22.2344 40.1875C22.224 40.375 22.2161 40.5495 22.2109 40.7109C22.2109 40.8672 22.2083 40.9844 22.2031 41.0625L22.0312 46.7656H18.0938C18.1771 45.8854 18.2604 45.0026 18.3438 44.1172C18.4323 43.2318 18.5078 42.349 18.5703 41.4688C18.638 40.5833 18.6927 39.6979 18.7344 38.8125C18.776 37.9271 18.7969 37.0417 18.7969 36.1562L22.5156 36L22.5 36.9062C22.6146 36.7604 22.7448 36.6146 22.8906 36.4688C23.0365 36.3177 23.1901 36.1849 23.3516 36.0703C23.5182 35.9505 23.6927 35.8542 23.875 35.7812C24.0625 35.7083 24.2552 35.6719 24.4531 35.6719C24.7083 35.6719 24.9375 35.6927 25.1406 35.7344C25.3438 35.7708 25.526 35.8359 25.6875 35.9297C25.8542 36.0234 26 36.1536 26.125 36.3203C26.25 36.4818 26.3594 36.6875 26.4531 36.9375C26.6198 36.7552 26.7865 36.5859 26.9531 36.4297C27.125 36.2734 27.3047 36.1406 27.4922 36.0312C27.6797 35.9167 27.8828 35.8281 28.1016 35.7656C28.3203 35.7031 28.5625 35.6719 28.8281 35.6719C29.3333 35.6719 29.763 35.7708 30.1172 35.9688C30.4714 36.1615 30.7656 36.4193 31 36.7422C31.2396 37.0651 31.4245 37.4349 31.5547 37.8516C31.6901 38.2682 31.7917 38.7005 31.8594 39.1484C31.9271 39.5964 31.9688 40.0417 31.9844 40.4844C32.0052 40.9271 32.0156 41.3333 32.0156 41.7031ZM41.4531 40.6875C41.4531 41.1406 41.4219 41.5938 41.3594 42.0469C40.4688 42.1042 39.5833 42.1979 38.7031 42.3281C37.8229 42.4531 36.9427 42.5781 36.0625 42.7031C36.1979 43.0781 36.4089 43.3776 36.6953 43.6016C36.987 43.8255 37.3333 43.9375 37.7344 43.9375C37.9427 43.9375 38.1693 43.8984 38.4141 43.8203C38.6641 43.7422 38.9115 43.6458 39.1562 43.5312C39.401 43.4115 39.6354 43.2839 39.8594 43.1484C40.0833 43.013 40.276 42.8906 40.4375 42.7812L40.0625 46.3281C39.8594 46.4844 39.638 46.6172 39.3984 46.7266C39.1641 46.8359 38.9193 46.9245 38.6641 46.9922C38.4089 47.0599 38.151 47.1094 37.8906 47.1406C37.6302 47.1719 37.375 47.1875 37.125 47.1875C36.6094 47.1875 36.138 47.1172 35.7109 46.9766C35.2839 46.8359 34.8958 46.6406 34.5469 46.3906C34.2031 46.1354 33.901 45.8359 33.6406 45.4922C33.3802 45.1484 33.1641 44.7734 32.9922 44.3672C32.8203 43.9609 32.6901 43.5312 32.6016 43.0781C32.513 42.625 32.4688 42.1667 32.4688 41.7031C32.4688 41.2188 32.513 40.7344 32.6016 40.25C32.6901 39.7656 32.8229 39.2995 33 38.8516C33.1823 38.4036 33.4089 37.9896 33.6797 37.6094C33.9557 37.224 34.276 36.888 34.6406 36.6016C35.0052 36.3151 35.4167 36.0911 35.875 35.9297C36.3385 35.7682 36.849 35.6875 37.4062 35.6875C37.8698 35.6875 38.2917 35.7526 38.6719 35.8828C39.0573 36.0078 39.3984 36.1849 39.6953 36.4141C39.9974 36.638 40.2578 36.9062 40.4766 37.2188C40.7005 37.5312 40.8828 37.875 41.0234 38.25C41.1693 38.6198 41.276 39.013 41.3438 39.4297C41.4167 39.8411 41.4531 40.2604 41.4531 40.6875ZM38.3281 40.2812C38.3281 40.1354 38.3125 39.987 38.2812 39.8359C38.25 39.6797 38.1979 39.5391 38.125 39.4141C38.0573 39.2891 37.9661 39.1875 37.8516 39.1094C37.737 39.026 37.5938 38.9844 37.4219 38.9844C37.2135 38.9844 37.0286 39.0417 36.8672 39.1562C36.7109 39.2656 36.5755 39.4062 36.4609 39.5781C36.3464 39.7448 36.2526 39.9271 36.1797 40.125C36.1068 40.3229 36.0521 40.5052 36.0156 40.6719L38.3281 40.4531V40.2812ZM45.7969 35.3906L45.1562 43.6094H42.2656L41.9688 35.3906H45.7969ZM45.2812 46.0156C45.2812 46.2448 45.237 46.4583 45.1484 46.6562C45.0599 46.8542 44.9401 47.026 44.7891 47.1719C44.6432 47.3229 44.4714 47.4401 44.2734 47.5234C44.0755 47.612 43.8646 47.6562 43.6406 47.6562C43.4115 47.6562 43.1979 47.612 43 47.5234C42.8021 47.4401 42.6276 47.3229 42.4766 47.1719C42.3307 47.026 42.2135 46.8542 42.125 46.6562C42.0417 46.4583 42 46.2448 42 46.0156C42 45.7917 42.0417 45.5781 42.125 45.375C42.2135 45.1719 42.3307 44.9974 42.4766 44.8516C42.6276 44.7005 42.8021 44.5807 43 44.4922C43.1979 44.4036 43.4115 44.3594 43.6406 44.3594C43.8646 44.3594 44.0755 44.4036 44.2734 44.4922C44.4714 44.5807 44.6432 44.7005 44.7891 44.8516C44.9401 44.9974 45.0599 45.1719 45.1484 45.375C45.237 45.5781 45.2812 45.7917 45.2812 46.0156Z" fill="#F4F4F4"/>
</svg>
