<svg width="53" height="50" viewBox="0 0 53 50" fill="none" xmlns="http://www.w3.org/2000/svg">
<path d="M7.30738 26.2475C5.23588 29.3131 2.30397 31.5533 0.667807 32.6574C0.0139957 33.0985 -0.209887 33.9855 0.222617 34.6481C2.60679 38.3006 9.91543 48.9693 14.5677 49.9786C14.9906 50.0703 15.3907 49.8584 15.655 49.5132C23.527 39.2306 42.8256 21.9169 52.1905 16.5436C53.1322 16.0033 53.2716 14.565 52.507 13.791C48.8975 10.1371 46.6954 4.48906 45.6127 1.05904C45.2535 -0.0787835 43.6976 -0.389782 42.9951 0.571507C37.1275 8.60004 18.7018 33.4296 15.2457 33.4296C11.6884 33.4296 11.7121 29.8192 9.57847 26.1588C9.07636 25.2974 7.86534 25.4217 7.30738 26.2475Z" fill="#69D924"/>
</svg>
