<?xml version="1.0" encoding="UTF-8" standalone="no"?>
<svg
   xmlns:dc="http://purl.org/dc/elements/1.1/"
   xmlns:cc="http://creativecommons.org/ns#"
   xmlns:rdf="http://www.w3.org/1999/02/22-rdf-syntax-ns#"
   xmlns:svg="http://www.w3.org/2000/svg"
   xmlns="http://www.w3.org/2000/svg"
   xmlns:sodipodi="http://sodipodi.sourceforge.net/DTD/sodipodi-0.dtd"
   xmlns:inkscape="http://www.inkscape.org/namespaces/inkscape"
   height="32"
   width="32"
   sodipodi:docname="icon.svg"
   inkscape:version="1.0 (4035a4fb49, 2020-05-01)"
   version="1.0"
   sodipodi:version="0.32"
   viewBox="0 0 31.999999 32.000001"
   sodipodi:modified="true"
   id="svg2187">
  <defs
     id="defs16" />
  <sodipodi:namedview
     inkscape:window-maximized="1"
     inkscape:pagecheckerboard="true"
     fit-margin-bottom="0"
     fit-margin-right="0"
     fit-margin-left="0"
     fit-margin-top="0"
     showgrid="false"
     inkscape:document-rotation="0"
     inkscape:document-units="px"
     inkscape:pageopacity="0.0"
     inkscape:window-width="1920"
     inkscape:window-x="-8"
     inkscape:window-y="-8"
     inkscape:cy="16.408153"
     inkscape:cx="9.4884393"
     inkscape:current-layer="g3257"
     borderopacity="1.0"
     objecttolerance="10"
     inkscape:zoom="22.627417"
     inkscape:window-height="1017"
     gridtolerance="10000"
     pagecolor="#ffffff"
     guidetolerance="10"
     inkscape:pageshadow="2"
     bordercolor="#666666"
     id="base" />
  <g
     transform="translate(-418.70725,-362.63405)"
     inkscape:groupmode="layer"
     inkscape:label="Layer 1"
     id="layer1">
    <g
       transform="matrix(1.9175,0,0,1.9175,-607.19,-179.09)"
       inkscape:export-filename="D:\Creations\Symbol-Paper.png"
       inkscape:export-xdpi="150"
       inkscape:export-ydpi="150"
       id="g3257">
      <path
         d="m 549.24564,282.5158 -0.34606,0.0443 -11.11545,1.34825 -0.45956,0.0609 0.1052,0.4485 c 1.04648,4.68703 -0.16334,9.43221 -0.79732,14.27705 l -0.0609,0.5094 0.50109,-0.0443 11.62762,-0.83054 0.34606,-0.0166 0.0443,-0.34606 c 0.58969,-4.94451 1.91579,-9.99975 0.26024,-15.12144 z m -0.60353,0.90806 c 1.37317,4.6289 -0.43188,9.18305 -1.02987,13.97252 l -9.8641,0.76964 c 0.62291,-4.46833 1.94624,-8.18086 1.04649,-12.78761 z"
         style="fill:#000000;fill-rule:evenodd;stroke-width:0.276848"
         sodipodi:nodetypes="cccccccccccccccccc"
         id="path3224" />
      <path
         d="m 540.60108,286.63807 6.46164,-1.2735"
         style="fill:none;stroke:#000000;stroke-width:0.276848px"
         id="path3237" />
      <path
         d="m 540.95735,288.10536 6.1654,-0.78348"
         style="fill:none;stroke:#000000;stroke-width:0.276848px"
         id="path3243" />
      <path
         d="m 540.5068,289.47576 6.33705,-0.53985"
         style="fill:none;stroke:#000000;stroke-width:0.276848px"
         id="path3247" />
      <path
         d="m 540.00969,291.40816 6.70526,-0.58692"
         style="fill:none;stroke:#000000;stroke-width:0.276848px"
         id="path3249" />
      <path
         d="m 540.38826,293.64789 c -0.0765,0.0143 -0.15243,0.0374 -0.21972,0.0773 -0.0328,0.0459 -0.0291,0.11252 -0.0832,0.14453 -0.0537,0.0703 -0.0294,0.16318 -0.0188,0.24326 0.0117,0.0552 0.0229,0.11332 0.0503,0.16264 0.0639,0.0666 0.14687,0.11053 0.22002,0.16517 0.0515,0.0277 0.11258,-4.1e-4 0.16179,0.0317 0.0528,0.0208 0.11781,0.0207 0.16209,-0.0188 0.0977,-0.0681 0.16469,-0.17133 0.21729,-0.27609 0.0223,-0.059 0.016,-0.12526 -0.005,-0.18355 0.0165,-0.0513 -0.0331,-0.0877 -0.0731,-0.10751 -0.0419,-0.0177 -0.0674,-0.0541 -0.0907,-0.091 -0.0368,-0.0507 -0.0926,-0.0897 -0.15658,-0.0931 -0.0302,-0.0149 -0.0313,-0.0446 -0.0723,-0.033 -0.0313,-0.003 -0.0616,-0.0135 -0.0917,-0.0215 z"
         style="fill:none;fill-opacity:1;stroke:#000000;stroke-width:0.260756;stroke-linecap:butt;stroke-linejoin:miter;stroke-miterlimit:4;stroke-dasharray:none;stroke-opacity:1"
         id="path849" />
      <path
         d="m 540.4574,294.47761 c 0.0294,0.0862 -0.0742,0.0594 -0.0978,0.009 -0.0571,-0.0256 -0.0752,0.0713 -0.12929,0.0892 -0.0779,0.0743 -0.13821,0.16201 -0.22419,0.22818 -0.0725,0.0809 -0.083,0.19536 -0.12601,0.29194 -0.0504,0.0821 -0.0151,0.17825 -0.0199,0.26809 0.0153,0.0944 -0.0267,0.23335 0.0456,0.29712 0.0388,0.058 0.0333,0.14202 0.0895,0.18583 0.0181,0.0591 0.0788,0.10208 0.10006,0.1706 0.0469,0.0768 0.15814,0.0754 0.21456,0.12499 0.0986,0.007 0.19003,-0.0381 0.28071,-0.0697 0.0667,-0.0428 0.1002,-0.11685 0.13349,-0.18866 0.0596,-0.13497 0.0396,-0.2875 0.0207,-0.42941 -0.0127,-0.10371 -0.0437,-0.20416 -0.0574,-0.30737 0.015,-0.0848 -0.0142,-0.15904 -0.0366,-0.23949 0.009,-0.0655 0.004,-0.13741 -0.0306,-0.18279 0.004,-0.0768 -0.081,-0.1343 -0.0771,-0.20635 -0.0258,-0.0185 -0.058,-0.028 -0.0856,-0.0409 z"
         style="fill:none;fill-opacity:1;stroke:#000000;stroke-width:0.260756;stroke-linejoin:round;stroke-miterlimit:4;stroke-dasharray:none"
         id="path851" />
      <path
         id="path857"
         d="m 540.24997,296.22925 c -0.0302,0.097 0.0395,0.40508 0,0.484 -0.006,0.0113 -0.0447,0.0475 -0.0231,0.0691 0.0126,0.0126 0.3261,0.0922 0.36877,0.0922"
         style="fill:none;fill-opacity:1;stroke:#000000;stroke-width:0.260756;stroke-linejoin:round;stroke-miterlimit:4;stroke-dasharray:none" />
      <path
         id="path859"
         d="m 540.64185,295.99862 c 0.23448,0.0898 0.19002,0.21898 0.27651,0.39196 0.0121,0.0242 -0.0184,0.0968 0,0.11524 0.005,0.005 0.0176,-0.005 0.023,0 0.0115,0.0115 -0.0115,0.0576 0,0.0691 0.0154,0.0154 0.0768,-0.0154 0.0922,0 0.005,0.005 -0.005,0.0176 0,0.0231 0.045,0.045 0.24641,-0.0231 0.29962,-0.0231"
         style="fill:none;fill-opacity:1;stroke:#000000;stroke-width:0.260756;stroke-linejoin:round;stroke-miterlimit:4;stroke-dasharray:none" />
      <path
         id="path875"
         d="m 539.88121,295.33038 c -0.0274,-0.0266 -0.6441,-0.0218 -0.64534,-0.023 -0.002,-0.002 0.006,-0.40472 0.0231,-0.43791 0.0307,-0.0615 0.023,0.0691 0.023,-0.0231"
         style="fill:none;fill-opacity:1;stroke:#000000;stroke-width:0.260756;stroke-linejoin:round;stroke-miterlimit:4;stroke-dasharray:none" />
      <path
         id="path877"
         d="m 540.75702,295.16905 c 0.18327,-0.009 0.31675,-0.10558 0.48401,-0.16134 0.0522,-0.0174 0.0833,0.009 0.11524,-0.023 0.0219,-0.0219 -0.008,-0.12942 0,-0.16134 0.0121,-0.0483 0.0461,-0.1164 0.0461,-0.16133"
         style="fill:none;fill-opacity:1;stroke:#000000;stroke-width:0.260756;stroke-linejoin:round;stroke-miterlimit:4;stroke-dasharray:none" />
      <path
         d="m 543.47667,293.6018 c 0.27617,0.01 0.47234,-0.18311 0.58313,-0.41241 0.13994,-0.19967 0.3268,-0.30759 0.53582,-0.40964 0.16078,-0.0772 0.37244,0.0806 0.45411,-0.1618 0.15905,-0.2334 0.28001,0.10404 0.29255,0.22486 0.0716,0.18271 -0.0684,0.32059 0.032,0.45272 -0.0117,0.29484 0.41538,0.21263 0.59579,0.30187 0.12873,0.15377 0.45192,-0.0762 0.48667,0.0656 -0.007,0.19402 -0.11416,0.34015 -0.0548,0.52478 0.0198,0.16409 0.0788,0.25995 0.0939,0.40475 0.0579,0.0461 0.10015,0.21908 0.18613,0.33322 0.0521,0.0998 0.0632,0.24487 0.15967,0.31201 0.13491,0.21133 0.005,0.44969 -0.0726,0.68008 -0.20589,0.16015 -0.40032,0.35326 -0.65979,0.44674 -0.23981,0.15082 -0.50976,0.20123 -0.77582,0.26693 -0.17529,-0.0815 -0.38091,-0.10416 -0.56165,-0.1946 -0.21236,-0.0685 -0.42967,0.0841 -0.6266,0.16055 -0.20602,0.0707 -0.4114,0.18598 -0.63124,0.23567 -0.236,0.0104 -0.48737,0.11041 -0.72859,0.0178 -0.15831,0.003 -0.3159,-0.078 -0.40834,-0.19906 -0.121,-0.17688 -0.13643,-0.46637 0.10873,-0.53844 0.0908,-0.16719 0.41556,-0.19005 0.41769,-0.42995 -0.009,-0.24112 -0.02,-0.48281 -0.049,-0.7224 -0.11121,-0.19284 -0.0348,-0.47334 0.0922,-0.6453 0.0401,-0.16281 0.14388,-0.29685 0.2074,-0.43796 0.0867,-0.12605 0.20218,-0.19114 0.32266,-0.27608 z"
         style="fill:none;fill-opacity:1;stroke:#000000;stroke-width:0.260756;stroke-linejoin:round;stroke-miterlimit:4;stroke-dasharray:none"
         id="path879" />
      <path
         id="path883"
         d="m 546.38933,294.12613 0.29386,0.84701"
         style="fill:none;fill-opacity:1;stroke:#000000;stroke-width:0.260756;stroke-linejoin:round;stroke-miterlimit:4;stroke-dasharray:none" />
      <path
         d="m 546.43831,293.99361 c 0.0832,0.003 0.16363,-0.0284 0.24365,-0.0489 0.12549,-0.0603 0.21126,-0.17534 0.30476,-0.27416 0.0534,-0.0728 0.10418,-0.14852 0.14298,-0.23014 0.0148,-0.0945 0.009,-0.19622 0.063,-0.28022 0.0307,-0.0644 0.079,-0.12771 0.0851,-0.19888 0.0377,-0.0215 0.0668,0.10923 0.0845,0.15572 0.035,0.12536 0.0322,0.25841 0.0787,0.38093 0.009,0.13202 -0.004,0.26957 -0.0609,0.39088 -0.13038,0.27917 -0.36923,0.49019 -0.61595,0.66572 -0.0385,0.025 -0.0742,0.0582 -0.11832,0.0727"
         style="fill:none;fill-opacity:1;stroke:#000000;stroke-width:0.260756;stroke-linejoin:round;stroke-miterlimit:4;stroke-dasharray:none"
         id="path885" />
      <path
         d="m 544.46772,293.33675 c -0.0288,-0.0149 -0.0591,-0.0127 -0.0842,0.009 -0.0338,0.0225 -0.0764,0.0372 -0.10321,0.0672 -0.005,0.011 -0.002,0.0333 -0.02,0.028 0.002,0.0307 -0.0155,0.0739 0.008,0.0963 0.0381,-0.007 0.0307,0.0481 0.0666,0.0468 0.0512,0.006 0.0942,0.0548 0.14881,0.0371 0.0255,-0.0163 0.0677,-0.002 0.0777,-0.0388 0.0101,-0.0125 0.0122,-0.042 0.0334,-0.0376 0.002,-0.0105 -0.007,-0.0283 0.0115,-0.023 0.0102,-0.0443 -0.003,-0.0908 -0.0218,-0.13107 -0.005,-0.0289 -0.0518,-0.0219 -0.0473,-0.0532 -0.0103,-0.003 -0.0283,0.008 -0.023,-0.0115 -0.0161,-1.3e-4 -0.0312,0.009 -0.0461,0.0112 z"
         style="fill:none;fill-opacity:1;stroke:#000000;stroke-width:0.130378;stroke-linejoin:round;stroke-miterlimit:4;stroke-dasharray:none"
         id="path893" />
      <path
         d="m 544.99782,293.34827 c -0.0536,-0.005 -0.11138,0.0188 -0.13775,0.0675 -0.0382,0.0695 -0.0295,0.15886 0.0107,0.22558 0.017,0.0427 0.0662,0.0383 0.10409,0.0411 0.0316,0.005 0.0706,0.007 0.0841,-0.0294 0.0327,-0.0568 0.0539,-0.12121 0.0582,-0.18676 0.003,-0.0256 -0.005,-0.06 -0.0283,-0.0654 0.008,-0.0143 -0.002,-0.0251 -0.0164,-0.0166 -0.0103,-0.002 -9.4e-4,-0.0218 -0.0191,-0.0202 -0.018,-0.007 -0.0367,-0.0113 -0.0553,-0.0159 z"
         style="fill:none;fill-opacity:1;stroke:#000000;stroke-width:0.130378;stroke-linejoin:round;stroke-miterlimit:4;stroke-dasharray:none"
         id="path895" />
      <path
         d="m 544.07591,293.94751 c -0.0126,0.0402 0.0378,0.0589 0.0396,0.0968 0.0152,0.0338 0.0345,0.0662 0.0388,0.10375 0.001,0.0193 0.0201,0.0623 0.0139,0.0184 0.0186,-0.0566 0.0292,-0.11618 0.0549,-0.17012 0.0407,0.0134 0.0527,0.0834 0.0767,0.12059 0.01,0.0136 0.0229,0.0665 0.032,0.0523 -1.9e-4,-0.0391 0.0228,-0.0922 0.0477,-0.11611 0.028,0.0344 0.0756,0.0691 0.0748,0.11611 0.008,0.0179 0.022,-0.0353 0.0303,-0.0472 0.0207,-0.0234 0.0485,-0.0423 0.0585,-0.0774 0.0183,-0.0361 0.0324,-0.0773 0.0692,-0.0991 0.0336,-0.0242 0.0784,-0.0508 0.12047,-0.0324 0.0142,0.02 0.0372,0.002 0.0415,0.0284 0.0105,-0.0296 0.0247,0.0328 0.0367,0.0458 0.0303,0.0433 9.2e-4,0.0889 -0.003,0.13337 0.007,0.0422 -0.0244,0.0729 -0.0462,0.10454 -0.0134,0.0433 -0.0701,0.0435 -0.083,0.0874 -0.0284,0.0269 -0.0694,0.0333 -0.10256,0.053 -0.0701,0.0368 -0.1499,0.0448 -0.22781,0.043 -0.0765,1.5e-4 -0.15231,-0.0159 -0.22893,-0.014 -0.0226,0.009 0.0188,0.004 -0.005,-0.009 -0.029,-0.036 -0.0216,-0.0932 -0.0462,-0.13508 -0.0148,-0.0651 -0.0181,-0.1324 -0.0254,-0.19869 -0.0102,-0.0417 0.001,-0.0755 0.0328,-0.10414 z"
         style="fill:none;fill-opacity:1;stroke:#000000;stroke-width:0.130378;stroke-linejoin:round;stroke-miterlimit:4;stroke-dasharray:none"
         id="path905" />
      <path
         d="m 540.05407,293.75161 c -0.0944,-0.0456 -0.0969,-0.16056 -0.13423,-0.24504 -0.0346,-0.0753 -0.0901,-0.15226 -0.0712,-0.23949 -0.0197,-0.10213 -0.0236,-0.20673 -0.0275,-0.31049 -0.006,-0.0393 -0.0489,-0.14749 0.03,-0.0939 0.10444,0.0781 0.15725,0.20187 0.21985,0.3123 0.0134,0.0293 0.0321,0.10236 0.0324,0.0324 0.0317,-0.15106 0.025,-0.31529 0.10347,-0.45291 0.0401,-0.05 0.1184,-0.11559 0.1768,-0.11213 0.0504,0.0905 0.022,0.2045 0.0777,0.2928 0.0194,0.0682 0.0337,0.13855 0.0667,0.20145 0.008,0.0398 0.013,0.10583 0.0447,0.0388 0.0825,-0.0971 0.20548,-0.14398 0.29408,-0.23428 0.0475,-0.0373 0.11116,-0.0717 0.15541,-0.0884 0.0202,-0.0212 0.0798,-0.075 0.0439,-0.0123 -0.0491,0.12659 -0.0885,0.25777 -0.10022,0.39365 -0.005,0.0698 -0.0214,0.13807 -0.0549,0.20007 -0.0238,0.0731 -0.041,0.14555 -0.0535,0.22086 -0.0335,0.0379 0.008,0.16744 -0.0716,0.10768 -0.0949,-0.0602 -0.20944,-0.0778 -0.31771,-0.0995 -0.11813,-0.009 -0.22843,0.0436 -0.33246,0.0923 -0.0271,0.006 -0.0546,-0.004 -0.0817,-0.004 z"
         style="fill:none;fill-opacity:1;stroke:#000000;stroke-width:0.260756;stroke-linejoin:round;stroke-miterlimit:4;stroke-dasharray:none"
         id="path909" />
      <path
         transform="matrix(0.52151239,0,0,0.52151239,535.01812,282.5158)"
         id="path913"
         d="m 10.097017,25.810004 c -0.1279899,-0.05333 -0.1939112,-0.12636 -0.2889293,-0.320071 -0.026826,-0.05469 -0.066183,-0.119325 -0.08746,-0.143632 -0.021277,-0.02431 -0.045935,-0.079 -0.054797,-0.121533 -0.00886,-0.04254 -0.039058,-0.117115 -0.067103,-0.165729 -0.046169,-0.08003 -0.051522,-0.119729 -0.056617,-0.419844 l -0.00563,-0.331457 0.095886,-0.271923 c 0.091661,-0.259943 0.1012491,-0.276493 0.2176274,-0.37565 0.066958,-0.05705 0.1483526,-0.140331 0.1808769,-0.18507 0.03252,-0.04474 0.0888,-0.106301 0.125051,-0.136807 0.06289,-0.05292 0.0709,-0.05419 0.174729,-0.02771 0.09128,0.02329 0.111774,0.03821 0.127175,0.09261 0.0101,0.03567 0.02879,0.09468 0.04153,0.131145 0.01274,0.03646 0.03087,0.140869 0.04029,0.23202 0.0094,0.09115 0.02803,0.19372 0.04136,0.227933 0.01333,0.03421 0.02429,0.108791 0.02435,0.165729 6.2e-5,0.05694 0.02431,0.217875 0.05388,0.357639 0.06783,0.320574 0.109476,0.704031 0.09033,0.831722 -0.03477,0.23184 -0.168032,0.407938 -0.358236,0.473378 -0.147999,0.05092 -0.140754,0.05123 -0.294321,-0.01276 z"
         style="fill:#3ac6ff;fill-opacity:1;stroke:#000000;stroke-width:0.0110485;stroke-linejoin:round;stroke-miterlimit:4;stroke-dasharray:none" />
      <path
         transform="matrix(0.52151239,0,0,0.52151239,535.01812,282.5158)"
         id="path915"
         d="m 9.7202632,21.211245 c -0.011547,-0.03037 -0.020994,-0.06728 -0.020994,-0.08203 0,-0.01474 -0.034803,-0.09943 -0.07734,-0.188187 -0.042537,-0.08876 -0.07734,-0.170717 -0.07734,-0.182127 0,-0.01141 0.041154,2.5e-4 0.091454,0.02591 0.082121,0.0419 0.1014107,0.04387 0.1890105,0.01934 0.1337962,-0.03746 0.1661153,-0.111386 0.2260103,-0.516967 0.02683,-0.181683 0.05441,-0.339437 0.06129,-0.350564 0.0164,-0.02654 0.0716,0.112421 0.172492,0.434271 0.0804,0.256474 0.084,0.26287 0.183436,0.325932 0.05579,0.03538 0.112447,0.06432 0.125914,0.06432 0.01347,0 0.05818,-0.03477 0.09938,-0.07727 0.0502,-0.05179 0.08014,-0.06877 0.09082,-0.05149 0.01062,0.01719 0.05476,-0.0091 0.132457,-0.07899 0.06409,-0.05762 0.145752,-0.11988 0.181474,-0.138352 l 0.06495,-0.03359 -0.01446,0.129072 c -0.008,0.07099 -0.03788,0.193707 -0.0665,0.272704 -0.08336,0.230066 -0.12373,0.361773 -0.123613,0.403272 6e-5,0.02127 -0.0024,0.03867 -0.0056,0.03867 -0.0031,0 -0.0951,-0.02474 -0.204398,-0.05497 -0.109296,-0.03023 -0.221227,-0.05509 -0.248737,-0.05524 -0.02751,-1.5e-4 -0.06849,-0.01181 -0.09106,-0.02591 -0.05221,-0.03261 -0.384681,0.04087 -0.5535464,0.122331 l -0.1141232,0.05506 z"
         style="fill:#fffd3a;fill-opacity:1;stroke:#000000;stroke-width:0.0110485;stroke-linejoin:round;stroke-miterlimit:4;stroke-dasharray:none" />
      <path
         transform="matrix(0.52151239,0,0,0.52151239,535.01812,282.5158)"
         id="path917"
         d="m 10.505813,22.648091 c -0.04861,-0.01782 -0.110145,-0.02957 -0.136737,-0.02611 -0.02968,0.0039 -0.112408,-0.03825 -0.214231,-0.109034 -0.182858,-0.127124 -0.202159,-0.162502 -0.2263662,-0.414916 -0.0121,-0.126168 -0.00864,-0.138717 0.071412,-0.259376 0.070552,-0.106333 0.1012542,-0.132482 0.1902552,-0.162044 0.09852,-0.03272 0.118186,-0.03241 0.274445,0.0044 0.157487,0.03713 0.174892,0.0473 0.270498,0.158096 0.0562,0.06513 0.133387,0.137718 0.171528,0.16131 0.05574,0.03447 0.07232,0.06271 0.08448,0.143831 0.01342,0.08947 0.0068,0.114734 -0.0583,0.222362 -0.0928,0.153444 -0.248556,0.31744 -0.299559,0.315406 -0.02147,-8.57e-4 -0.07882,-0.01614 -0.12743,-0.03395 z"
         style="fill:#dca767;fill-opacity:1;stroke:#000000;stroke-width:0.0110485;stroke-linejoin:round;stroke-miterlimit:4;stroke-dasharray:none" />
      <path
         d="m 542.92858,296.74308 c -0.1735,-0.03 -0.41428,-0.0558 -0.46992,-0.25307 -0.12196,-0.23097 0.21794,-0.31494 0.33583,-0.45257 0.21863,-0.087 0.27878,-0.31559 0.23741,-0.5285 -0.0139,-0.20481 -0.013,-0.41355 -0.0607,-0.61383 -0.0925,-0.19557 0.036,-0.40895 0.11875,-0.5841 0.0984,-0.1844 0.16957,-0.39311 0.3514,-0.51265 0.14222,-0.11582 0.37591,-0.0918 0.52023,-0.2281 0.13697,-0.16184 0.22892,-0.36164 0.39936,-0.49722 0.1745,-0.10578 0.34388,-0.23204 0.55457,-0.16373 0.15086,-3.3e-4 0.22823,-0.3212 0.28983,-0.0849 0.0318,0.22147 -0.0397,0.43184 0.0546,0.64414 0.11272,0.16265 0.33527,0.18992 0.51597,0.22566 0.11851,-0.0292 0.19469,0.11013 0.31257,0.0809 0.14318,-0.0244 0.24511,0.009 0.17205,0.17132 -0.0467,0.18444 0.0351,0.37781 0.0703,0.56019 0.0785,0.17329 0.13826,0.35696 0.23341,0.52894 0.057,0.19618 0.26871,0.359 0.16254,0.57643 -0.007,0.23302 -0.21567,0.31004 -0.3557,0.45569 -0.2202,0.12432 -0.44628,0.24415 -0.68191,0.33616 -0.2019,0.0563 -0.37411,0.1019 -0.5727,0.008 -0.20691,-0.0508 -0.41183,-0.20648 -0.62698,-0.0981 -0.24685,0.0809 -0.48514,0.18243 -0.72148,0.28917 -0.19613,0.0829 -0.40755,0.0993 -0.6138,0.14181 -0.0749,0.007 -0.1511,0.01 -0.22563,-0.002 z m 1.53074,-2.27105 c 0.24047,-0.0249 0.49978,-0.2569 0.41569,-0.5146 -0.0879,-0.23529 -0.35898,-0.0515 -0.43046,0.0602 -0.10828,-0.0137 -0.20191,-0.11369 -0.29724,-0.0691 -0.10109,-0.20088 -0.23649,0.11018 -0.16177,0.22646 -0.008,0.20646 0.12434,0.34912 0.33418,0.30766 0.0468,0.003 0.0934,-0.005 0.1396,-0.0107 z m 0.59907,-0.72489 c 0.15605,-0.10422 0.19548,-0.45414 -0.0518,-0.46753 -0.18913,-0.0249 -0.29329,0.20501 -0.21579,0.3586 0.0326,0.11489 0.16883,0.12989 0.26762,0.10893 z m -0.47762,-0.0837 c 0.20369,-0.13476 0.0438,-0.49239 -0.19495,-0.39584 -0.23337,0.0335 -0.26955,0.37774 -0.0142,0.4061 0.0671,0.022 0.14395,0.0144 0.2092,-0.0103 z"
         style="fill:#ef8100;fill-opacity:1;stroke:#000000;stroke-width:0.00576193;stroke-linejoin:round;stroke-miterlimit:4;stroke-dasharray:none"
         id="path919" />
      <path
         transform="matrix(0.52151239,0,0,0.52151239,535.01812,282.5158)"
         id="path921"
         d="m 17.595157,22.646134 c -0.02891,-0.0056 -0.05713,-0.03551 -0.07093,-0.0751 -0.0173,-0.04961 -0.01636,-0.06449 0.0038,-0.06065 0.06455,0.01231 0.128444,-0.03148 0.141551,-0.09702 0.01252,-0.06262 0.0158,-0.06473 0.04294,-0.02762 0.05839,0.07986 0.14233,0.119312 0.198952,0.09351 0.02865,-0.01305 0.05224,-0.03457 0.05243,-0.04781 2.41e-4,-0.01716 0.005,-0.01709 0.01657,2.39e-4 0.0089,0.01337 0.03873,0.03616 0.06622,0.05064 0.04296,0.02263 0.0607,0.01816 0.126192,-0.0318 0.04191,-0.03197 0.08224,-0.07713 0.08961,-0.100358 0.0074,-0.02323 0.02254,-0.04223 0.03369,-0.04223 0.01116,0 0.04961,-0.05809 0.08546,-0.129097 0.07659,-0.151733 0.144265,-0.206346 0.215917,-0.174253 0.02664,0.01193 0.05408,0.03641 0.06098,0.0544 0.02484,0.06473 -0.07984,0.359434 -0.127667,0.359434 -0.01059,0 -0.04562,0.02818 -0.07784,0.06262 -0.03222,0.03444 -0.124914,0.08913 -0.205984,0.121534 -0.129075,0.05159 -0.175776,0.05854 -0.37565,0.05591 -0.125538,-0.0017 -0.249858,-0.0072 -0.276266,-0.01236 z"
         style="fill:#ef8100;fill-opacity:1;stroke:#000000;stroke-width:0.0110485;stroke-linejoin:round;stroke-miterlimit:4;stroke-dasharray:none" />
      <path
         transform="matrix(0.52151239,0,0,0.52151239,535.01812,282.5158)"
         id="path923"
         d="m 17.985677,21.119326 c -0.08635,-0.04216 -0.132209,-0.09054 -0.118696,-0.125225 0.0049,-0.01266 0.04868,-0.04575 0.09721,-0.07353 0.07725,-0.04422 0.09919,-0.04756 0.176174,-0.02683 0.110619,0.02979 0.138895,0.105942 0.0725,0.195272 -0.05295,0.07124 -0.12396,0.08072 -0.227188,0.03031 z"
         style="fill:#ef8100;fill-opacity:1;stroke:#000000;stroke-width:0.0110485;stroke-linejoin:round;stroke-miterlimit:4;stroke-dasharray:none" />
      <path
         transform="matrix(0.52151239,0,0,0.52151239,535.01812,282.5158)"
         id="path925"
         d="m 18.982207,21.1998 c -0.03264,-0.09362 -0.03057,-0.141367 0.0095,-0.218771 0.02559,-0.04948 0.04917,-0.06519 0.09786,-0.06519 0.07201,0 0.133594,0.04985 0.133594,0.108127 0,0.02127 -0.01585,0.0852 -0.03522,0.142053 -0.03243,0.09517 -0.04102,0.103373 -0.108324,0.103373 -0.06213,0 -0.07674,-0.01045 -0.09736,-0.06959 z"
         style="fill:#ef8100;fill-opacity:1;stroke:#000000;stroke-width:0.0110485;stroke-linejoin:round;stroke-miterlimit:4;stroke-dasharray:none" />
      <path
         transform="matrix(0.52151239,0,0,0.52151239,535.01812,282.5158)"
         id="path927"
         d="m 22.199876,22.600738 c -0.05771,-0.167109 -0.104749,-0.315138 -0.104533,-0.328954 2.16e-4,-0.01382 0.06479,-0.03727 0.143498,-0.05212 0.24455,-0.04614 0.38633,-0.12972 0.64194,-0.378409 0.323728,-0.314963 0.6036,-0.735566 0.608429,-0.91437 0.0013,-0.0498 0.01164,-0.03186 0.04136,0.07209 0.06083,0.212731 0.03022,0.479048 -0.08264,0.718781 -0.161394,0.342846 -0.496125,0.718963 -0.926249,1.040769 -0.106661,0.0798 -0.199094,0.145308 -0.205406,0.145571 -0.0063,2.63e-4 -0.05869,-0.136248 -0.116402,-0.303358 z"
         style="fill:#ef8100;fill-opacity:1;stroke:#000000;stroke-width:0.0110485;stroke-linejoin:round;stroke-miterlimit:4;stroke-dasharray:none" />
      <path
         style="fill:#ffffff;stroke:#000000;stroke-width:0.0883883;stroke-linejoin:round;fill-opacity:1"
         d="m 5.266726,29.972132 c 0,-0.206952 0.5004882,-3.201181 0.8392075,-5.020657 0.921614,-4.950574 1.15333,-6.306331 1.3671545,-7.999146 0.2640081,-2.09011 0.3564894,-3.465905 0.3564894,-5.303301 0,-2.0025728 -0.1186668,-3.5179 -0.4143436,-5.2909986 L 7.2735762,5.5085447 7.4965394,5.4630493 C 7.6191692,5.4380268 10.782159,4.8101885 14.525405,4.0678531 18.268652,3.3255176 22.405227,2.5040943 23.717794,2.2424679 l 2.386485,-0.4756843 0.101465,0.3559769 c 0.911004,3.1961387 1.088959,6.9618616 0.536849,11.3603265 -0.227266,1.810543 -0.525244,3.516142 -1.320286,7.557203 -0.679813,3.455374 -1.025123,5.422093 -1.243455,7.082117 -0.05146,0.391268 -0.05847,0.408796 -0.163381,0.408796 -0.12638,0 -18.111358,1.396963 -18.4946285,1.43655 -0.1397641,0.01444 -0.2541165,0.01641 -0.2541165,0.0044 z m 5.435883,-2.430052 v -0.282015 l -0.194833,-0.04906 -0.194832,-0.04906 0.007,-0.380966 0.007,-0.380966 0.262086,-0.08114 c 0.144146,-0.04463 0.275658,-0.07275 0.292248,-0.0625 0.03519,0.02175 0.155165,0.425255 0.140764,0.473421 -0.01813,0.06065 0.138921,0.408872 0.208317,0.461889 0.104551,0.07988 0.381211,0.114646 0.64749,0.08138 l 0.238959,-0.02986 v -0.284924 c 0,-0.280574 -0.0017,-0.284574 -0.110485,-0.261985 -0.386377,0.08022 -0.341783,0.114109 -0.519406,-0.394721 -0.06746,-0.193252 -0.162799,-0.394098 -0.211862,-0.446324 -0.07376,-0.07851 -0.0813,-0.115737 -0.04357,-0.214984 0.05391,-0.141804 0.057,-0.676423 0.0054,-0.942916 -0.02522,-0.13035 -0.02125,-0.188072 0.01297,-0.188634 0.02712,-4.46e-4 0.217426,-0.07005 0.422902,-0.154679 0.205475,-0.08463 0.415798,-0.153871 0.467383,-0.153871 0.15527,0 0.273154,-0.173237 0.300732,-0.441942 0.01372,-0.133687 0.03841,-0.298772 0.05487,-0.366856 l 0.02993,-0.123787 -0.281796,0.0133 -0.281797,0.0133 -0.04632,0.192079 c -0.04523,0.187556 -0.05458,0.195504 -0.397196,0.337545 l -0.350875,0.145466 -0.05579,-0.132696 c -0.03069,-0.07298 -0.05579,-0.197052 -0.05579,-0.275708 0,-0.07866 -0.02049,-0.201775 -0.04552,-0.273598 -0.04181,-0.119946 -0.03049,-0.146388 0.138938,-0.324496 0.101454,-0.10665 0.233091,-0.300131 0.292529,-0.429959 0.09044,-0.19755 0.102991,-0.273644 0.07694,-0.466545 -0.01712,-0.126773 -0.05041,-0.267147 -0.07398,-0.311944 -0.04182,-0.07948 0.05731,-0.612313 0.146289,-0.78624 0.02031,-0.03971 0.0594,-0.217007 0.08686,-0.394001 0.02746,-0.176994 0.07525,-0.393581 0.106203,-0.481304 0.04966,-0.140762 0.04524,-0.186614 -0.03768,-0.390402 -0.05168,-0.127 -0.122039,-0.230927 -0.156364,-0.230951 -0.08724,-4.4e-5 -0.434406,0.207138 -0.641605,0.382931 -0.09553,0.08105 -0.188634,0.147357 -0.206908,0.147357 -0.01827,0 -0.06697,-0.154127 -0.108223,-0.342505 -0.04125,-0.188377 -0.09347,-0.365809 -0.116044,-0.394292 -0.02257,-0.02848 -0.120527,-0.06522 -0.217672,-0.08163 -0.14656,-0.02476 -0.206161,-0.01029 -0.3501358,0.08498 -0.095431,0.06315 -0.214492,0.195154 -0.2645804,0.293336 l -0.09107,0.178512 -0.1146366,-0.09017 C 9.3397146,19.54003 9.1006238,19.532833 8.9980044,19.635455 c -0.066628,0.06663 -0.072214,0.140539 -0.046696,0.617864 0.025656,0.479915 0.046842,0.586478 0.1844746,0.927875 0.085519,0.21213 0.1829456,0.41636 0.2165028,0.453844 0.04146,0.04631 0.053624,0.132656 0.037957,0.269422 -0.034849,0.304221 0.090105,0.743743 0.2540773,0.893704 l 0.1341647,0.1227 -0.1620061,0.197707 c -0.089104,0.108739 -0.1772108,0.197707 -0.195794,0.197707 -0.063568,0 -0.1846183,0.230166 -0.3073933,0.58448 l -0.122752,0.354248 -0.3291684,0.01566 -0.3291684,0.01566 0.034455,-0.208811 c 0.01895,-0.114846 0.046789,-0.269221 0.061864,-0.343054 0.043143,-0.21131 -0.08507,-0.332387 -0.3103105,-0.29304 -0.2628495,0.04592 -0.2987096,0.145939 -0.2702423,0.75376 0.012964,0.276791 0.030512,0.510197 0.038996,0.518681 0.00848,0.0085 0.2676033,0.03863 0.5758197,0.06698 l 0.5603935,0.05156 v 0.169311 c 0,0.163967 0.1964133,0.637533 0.3258527,0.785654 0.03368,0.03854 0.094422,0.135571 0.1349825,0.215621 0.04056,0.08005 0.1175362,0.165578 0.1710575,0.190059 0.089321,0.04086 0.098392,0.08053 0.1104717,0.483178 0.00732,0.244116 -0.00703,0.476396 -0.032366,0.523737 -0.031353,0.05858 -0.031052,0.126594 9.678e-4,0.218446 0.052374,0.150242 0.2385297,0.243283 0.6811508,0.340442 0.145841,0.03201 0.270137,0.05979 0.276214,0.06172 0.0061,0.0019 0.01105,-0.123394 0.01105,-0.278503 z m 5.23701,0.230589 c 0.09723,-0.02801 0.224921,-0.04773 0.283762,-0.04382 0.05884,0.0039 0.237829,-0.0352 0.397748,-0.08691 0.262942,-0.08503 0.483153,-0.175294 1.240937,-0.508659 0.521952,-0.229618 0.59347,-0.23501 1.037988,-0.07826 0.922073,0.325146 0.986849,0.334806 1.29808,0.193581 0.105959,-0.04808 0.257875,-0.08742 0.337592,-0.08742 0.211717,0 1.431749,-0.61483 1.692275,-0.852815 0.114489,-0.104584 0.263801,-0.225045 0.331805,-0.267691 0.182327,-0.11434 0.272824,-0.292996 0.409375,-0.808179 0.120113,-0.45316 0.121092,-0.466831 0.04965,-0.693458 -0.04008,-0.127151 -0.122945,-0.299051 -0.184142,-0.382 -0.0612,-0.08295 -0.111268,-0.177149 -0.111268,-0.209334 0,-0.03219 -0.05222,-0.158397 -0.116056,-0.280471 -0.06383,-0.122074 -0.108578,-0.226695 -0.09944,-0.23249 0.0091,-0.0058 0.17131,-0.126851 0.360378,-0.269012 0.471835,-0.354774 0.841991,-0.77163 1.038925,-1.169999 0.150978,-0.305404 0.164059,-0.362226 0.163457,-0.709999 -7.03e-4,-0.405842 -0.09873,-0.978728 -0.21495,-1.25627 -0.05654,-0.135017 -0.08419,-0.16074 -0.131017,-0.121879 -0.04605,0.03822 -0.07059,0.02458 -0.109533,-0.06088 -0.05857,-0.128547 -0.119018,-0.141389 -0.160213,-0.03404 -0.02225,0.05798 -0.03753,0.06263 -0.06418,0.01951 -0.05165,-0.08357 -0.341947,0.504616 -0.397575,0.805541 -0.02524,0.136516 -0.06598,0.285761 -0.09054,0.331654 -0.08187,0.152976 -0.444083,0.552316 -0.577703,0.636919 l -0.131884,0.0835 v -0.269505 c 0,-0.21058 -0.01933,-0.288831 -0.08839,-0.357894 -0.09997,-0.09997 -0.318697,-0.117347 -0.390354,-0.031 -0.07068,0.08516 -0.442031,0.05449 -0.646505,-0.0534 -0.09629,-0.05081 -0.256818,-0.09238 -0.356729,-0.09238 -0.09991,0 -0.272125,-0.03083 -0.382699,-0.0685 -0.191524,-0.06526 -0.202349,-0.07803 -0.22863,-0.269771 -0.01517,-0.110698 -0.01642,-0.273774 -0.0028,-0.362391 0.03215,-0.208658 -0.121574,-0.847857 -0.245886,-1.022436 -0.121366,-0.170444 -0.219397,-0.221444 -0.425654,-0.221444 -0.141232,0 -0.195998,0.03189 -0.367508,0.214029 -0.191299,0.203149 -0.211266,0.213004 -0.392841,0.1939 -0.162308,-0.01708 -0.2543,0.01156 -0.60705,0.188982 -0.333541,0.16776 -0.475523,0.272031 -0.71801,0.527307 -0.166241,0.175009 -0.350477,0.406317 -0.409415,0.514019 -0.116116,0.21219 -0.399628,0.389496 -0.628201,0.392873 -0.311574,0.0046 -0.859444,0.469128 -1.07068,0.907803 -0.07023,0.14584 -0.140657,0.275108 -0.15651,0.287262 -0.01585,0.01215 -0.05435,0.101646 -0.08556,0.198874 -0.0312,0.09723 -0.093,0.228519 -0.137332,0.291759 -0.160489,0.228956 -0.258292,1.097953 -0.139674,1.241027 0.04357,0.05255 0.141627,0.983497 0.143765,1.364843 2.21e-4,0.03806 -0.08018,0.114484 -0.178654,0.169829 -0.09847,0.05534 -0.326704,0.217968 -0.507179,0.361385 -0.559538,0.444645 -0.629648,0.751005 -0.315319,1.377859 0.151596,0.302322 0.175525,0.327021 0.437325,0.451392 0.382587,0.181753 1.257654,0.260632 1.646972,0.148459 z m 0.110485,-10.998764 c 3.366492,-0.291199 6.187822,-0.540555 6.269622,-0.554124 l 0.148729,-0.02467 -0.0189,-0.261277 c -0.01039,-0.143701 -0.0276,-0.26897 -0.03824,-0.278374 -0.02279,-0.02015 -12.85775,1.102732 -12.8729931,1.126207 -0.00571,0.0088 -0.00288,0.139661 0.00629,0.290822 l 0.016666,0.27484 0.183969,-0.02198 c 0.101183,-0.01209 2.9383711,-0.260239 6.3048621,-0.551439 z m 0.861787,-3.683681 5.789437,-0.493479 -0.01454,-0.263741 c -0.008,-0.145057 -0.02372,-0.27292 -0.03494,-0.284141 -0.01122,-0.01122 -1.028879,0.06497 -2.261464,0.169317 -6.767694,0.57292 -9.878338,0.84411 -9.897069,0.862841 -0.01154,0.01155 -0.007,0.141494 0.01009,0.288775 l 0.03108,0.267783 0.293983,-0.02694 c 0.16169,-0.01481 2.899229,-0.249003 6.083419,-0.520417 z m 0.441942,-2.838273 c 3.208497,-0.4053334 5.85026,-0.7517299 5.870585,-0.76977 0.02032,-0.018041 0.02301,-0.1444451 0.006,-0.2808991 -0.03032,-0.2426909 -0.03402,-0.2480451 -0.169536,-0.2456639 -0.0762,0.00134 -2.743786,0.3346441 -5.927976,0.7406789 l -5.789437,0.7382441 0.01385,0.198448 c 0.01819,0.260638 0.04696,0.35282 0.110665,0.354529 0.02875,7.73e-4 2.677399,-0.330234 5.885896,-0.735567 z m 0.08839,-3.3773518 c 3.11127,-0.6129047 5.67188,-1.127923 5.690246,-1.144485 0.05373,-0.048454 -0.06024,-0.5334352 -0.125351,-0.5334352 -0.05276,0 -12.072272,2.3617831 -12.287992,2.4145372 -0.09872,0.024142 -0.09872,0.024117 0.0052,0.4851235 l 0.02105,0.093331 0.519971,-0.1003495 c 0.285985,-0.055192 3.065557,-0.6018168 6.176827,-1.2147215 z"
         id="path858"
         transform="matrix(0.52151239,0,0,0.52151239,535.01812,282.5158)" />
    </g>
  </g>
  <metadata
     id="metadata13">
    <rdf:RDF>
      <cc:Work>
        <dc:format>image/svg+xml</dc:format>
        <dc:type
           rdf:resource="http://purl.org/dc/dcmitype/StillImage" />
        <cc:license
           rdf:resource="http://creativecommons.org/publicdomain/zero/1.0/" />
        <dc:publisher>
          <cc:Agent
             rdf:about="http://openclipart.org/">
            <dc:title>Openclipart</dc:title>
          </cc:Agent>
        </dc:publisher>
        <dc:title />
        <dc:date>2009-04-23T23:01:07</dc:date>
        <dc:description>Simple BW paper with writings</dc:description>
        <dc:source>https://openclipart.org/detail/25275/paper-by-printerkiller-25275</dc:source>
        <dc:creator>
          <cc:Agent>
            <dc:title>PrinterKiller</dc:title>
          </cc:Agent>
        </dc:creator>
        <dc:subject>
          <rdf:Bag>
            <rdf:li>paper</rdf:li>
            <rdf:li>symbol</rdf:li>
          </rdf:Bag>
        </dc:subject>
      </cc:Work>
      <cc:License
         rdf:about="http://creativecommons.org/publicdomain/zero/1.0/">
        <cc:permits
           rdf:resource="http://creativecommons.org/ns#Reproduction" />
        <cc:permits
           rdf:resource="http://creativecommons.org/ns#Distribution" />
        <cc:permits
           rdf:resource="http://creativecommons.org/ns#DerivativeWorks" />
      </cc:License>
    </rdf:RDF>
  </metadata>
</svg>
